<svg width="178" height="179" viewBox="0 0 178 179" fill="none" xmlns="http://www.w3.org/2000/svg">
<path d="M124.841 170.383C98.6985 181.387 72.8411 180.953 48.2058 168.149C21.1126 154.068 4.48285 131.228 0.797605 100.636C-3.57721 64.3206 10.1157 35.303 40.1261 14.5867C70.5188 -6.39349 114.017 -4.42352 143.03 18.4446C165.82 36.408 178.012 60.1279 177.616 88.9291C177.101 126.431 159.057 153.698 124.841 170.383ZM68.4984 131.525C58.667 126.456 51.7337 118.713 49.0684 108.013C47.3634 101.168 46.3779 93.9334 46.4649 86.8905C46.775 61.7934 61.2693 45.418 86.0916 42.475C99.1627 40.9253 111.832 43.0945 121.836 52.7934C132.301 62.9385 135.677 92.2747 127.5 104.371C125.901 106.735 121.768 108.502 118.787 108.527C115.21 108.557 113.438 105.133 113.354 101.352C113.122 90.8718 112.76 80.3939 112.615 69.9128C112.49 60.8911 112.591 60.8897 103.895 58.2514C86.669 53.0248 72.0824 57.8525 65.6005 72.2575C60.537 83.5103 60.2446 95.6419 65.1646 107.22C68.9362 116.097 76.2379 120.197 85.9133 119.836C93.9547 119.537 99.2742 114.881 103.395 108.265C111.703 126.387 132.602 121.608 139.798 109.685C142.251 105.619 144.411 101.13 145.531 96.5471C150.204 77.4185 147.63 59.7047 133.185 45.2092C114.89 26.8493 79.7916 23.9613 57.2359 38.8074C35.6939 52.9862 28.5109 73.7718 30.9885 98.4367C32.5818 114.298 39.0889 127.902 52.3941 137.477C69.8685 150.051 89.4297 151.518 109.64 147.014C121.97 144.266 121.792 146.66 116.784 133.222C116.685 132.954 116.302 132.791 115.714 132.293C100.357 136.705 84.6998 138.74 68.4984 131.525Z" fill="#F78F67"/>
<path d="M68.3184 131.376C84.1784 138.427 99.836 136.392 115.193 131.98C115.781 132.478 116.163 132.641 116.263 132.909C121.27 146.347 121.449 143.953 109.118 146.701C88.9083 151.205 69.3471 149.738 51.8727 137.164C38.5675 127.589 32.0604 113.985 30.4671 98.1236C27.9895 73.4587 35.1725 52.6731 56.7145 38.4943C79.2702 23.6481 114.369 26.5361 132.664 44.8961C147.108 59.3915 149.683 77.1054 145.009 96.2339C143.89 100.817 141.73 105.305 139.276 109.371C132.081 121.295 111.181 126.074 102.873 107.952C98.7528 114.567 93.4333 119.223 85.3919 119.523C75.7165 119.884 68.4149 115.783 64.6432 106.907C59.7232 95.3288 60.0156 83.1971 65.0791 71.9443C71.561 57.5394 86.1476 52.7117 103.374 57.9383C112.07 60.5766 111.969 60.5779 112.094 69.5997C112.239 80.0808 112.601 90.5587 112.833 101.039C112.917 104.82 114.688 108.244 118.266 108.214C121.247 108.189 125.38 106.422 126.978 104.058C135.156 91.9616 131.779 62.6254 121.315 52.4803C111.31 42.7814 98.6413 40.6122 85.5702 42.1619C60.7479 45.1049 46.2536 61.4803 45.9435 86.5774C45.8565 93.6203 46.842 100.855 48.5471 107.7C51.2123 118.4 58.1456 126.143 68.3184 131.376ZM81.466 106.67C89.5246 110.229 97.4543 106.028 97.7501 97.7186C98.0582 89.0656 97.9417 80.3919 97.7516 71.733C97.7231 70.4327 96.4709 68.2461 95.4598 68.0362C90.6855 67.0459 85.4757 66.3541 82.1823 70.9909C80.0542 73.9871 78.2222 77.6376 77.6619 81.2149C76.3282 89.7292 75.3148 98.4437 81.466 106.67Z" fill="#FDFAF5"/>
<path d="M81.5412 106.107C75.6803 98.1316 76.6938 89.4171 78.0274 80.9028C78.5878 77.3254 80.4197 73.675 82.5479 70.6788C85.8412 66.042 91.0511 66.7338 95.8253 67.7241C96.8364 67.934 98.0886 70.1206 98.1172 71.4208C98.3072 80.0798 98.4237 88.7535 98.1156 97.4064C97.8198 105.715 89.8901 109.917 81.5412 106.107Z" fill="#F78F67"/>
</svg>
