<svg width="82" height="80" viewBox="0 0 82 80" fill="none" xmlns="http://www.w3.org/2000/svg">
<path d="M64.6422 36.7852L73.488 54.8292C71.6664 56.6225 69.2743 57.9226 67.1715 57.9666H67.1688V57.9639H67.1675L48.7399 44.1959C49.9292 43.3025 51.1845 42.2372 52.4424 40.9732C54.2263 39.1812 55.8072 37.1999 57.1714 35.0492C58.0539 35.4999 59.554 36.1986 60.4164 36.5306C61.7954 37.0626 63.4112 36.8399 64.6422 36.7852Z" fill="white"/>
<path d="M53.6532 18.2372L40.4578 32.8826L31.5124 24.5292L34.8086 21.1079L40.2223 25.9252L50.1162 15.0559L53.6532 18.2372Z" fill="#FA8D62"/>
<path d="M47.9865 72.9439C51.1441 75.5186 47.4107 80.6239 43.8817 78.1946L39.3209 75.0799L41.639 72.2639C42.5202 71.1786 42.6225 69.9999 42.2565 68.9893L47.7174 72.7413C47.8035 72.8026 47.8882 72.8639 47.9663 72.9293L47.9865 72.9439Z" fill="#FA8D62"/>
<path d="M42.2566 68.9893C42.6225 69.9999 42.5202 71.1786 41.639 72.264L39.321 75.08L37.6258 77.1413C34.3767 81.1413 28.7369 76.6813 31.9376 72.6773C31.947 72.6653 31.9551 72.6546 31.9645 72.6426L36.084 67.6893L36.1055 67.7066C38.1249 65.2173 41.4184 66.6719 42.2539 68.9866L42.2566 68.9893Z" fill="white"/>
<path d="M30.202 62.4973H30.2047C33.299 58.6959 39.4985 63.5066 36.4028 67.3066L36.084 67.6893L31.9644 72.6426C31.955 72.6546 31.9469 72.6653 31.9375 72.6773L31.0428 73.7493C27.5664 78.016 21.4947 73.2093 24.9712 68.9399L30.202 62.4973Z" fill="white"/>
<path d="M30.0984 40.9733C35.4933 46.3906 40.8479 48.1906 41.0753 48.2639L41.1291 48.2813C41.1735 48.2959 41.2205 48.3053 41.2703 48.3053C41.3174 48.3053 41.3672 48.2959 41.4116 48.2813L41.4654 48.2639C41.639 48.2079 44.8261 47.1373 48.7398 44.1959L67.1674 57.9639H67.1687V57.9666H67.1714L67.7553 58.3973L68.8545 59.1573C73.161 62.1279 68.5975 68.6199 64.2909 65.6493L62.3926 64.3506V64.3533C65.0444 67.4559 60.9625 72.5893 57.0771 69.9199L54.8344 68.2173C58.1897 71.1519 53.8455 77.0319 49.9184 74.3306L47.9864 72.9439L47.9662 72.9293C47.8882 72.8639 47.8035 72.8026 47.7174 72.7413L42.2565 68.9893L42.2538 68.9866C41.4183 66.6719 38.1249 65.2173 36.1055 67.7066L36.084 67.6893L36.4028 67.3066C39.4985 63.5066 33.299 58.6959 30.2047 62.4973H30.202L30.7011 61.8826C33.926 57.9146 27.8059 53.0546 24.5837 57.0239L23.0312 58.9333C26.1349 55.1213 20.0781 50.3239 16.973 54.1346L14.0616 57.8093H14.0589C11.8377 57.0159 10.5179 55.4666 9.02854 53.8039L9.14156 53.5706L17.6847 36.1439L17.7263 36.0586C18.9695 36.5506 20.8422 37.0533 22.7621 36.9079C23.4711 36.8573 25.0411 36.4386 26.0663 36.1079L26.069 36.1053C27.2623 37.8506 28.6117 39.4773 30.0984 40.9733ZM54.8209 68.2079C54.7644 68.1559 54.7052 68.1106 54.6433 68.0639C54.7052 68.1106 54.7644 68.1586 54.8209 68.2079Z" fill="#FA8D62"/>
<path d="M24.5838 57.0239C27.8059 53.0545 33.926 57.9145 30.7012 61.8825L30.202 62.4972L24.9713 68.9399L24.5515 69.4572C20.9311 73.9159 14.8123 69.0559 18.4327 64.5985L19.7203 63.0132L23.0312 58.9332L24.5838 57.0239Z" fill="white"/>
<path d="M16.9729 54.1346C20.0781 50.324 26.1349 55.1213 23.0311 58.9333L19.7202 63.0133L19.696 62.9946C16.2088 67.2746 10.2219 62.5333 13.7077 58.2533L14.0588 57.8093H14.0615L16.9729 54.1346Z" fill="white"/>
<path d="M9.02854 53.8039C10.5179 55.4665 11.8377 57.0159 14.0589 57.8092" stroke="#2B616D" stroke-width="1.777" stroke-miterlimit="10" stroke-linecap="round" stroke-linejoin="round"/>
<path d="M26.0664 36.1079C25.0412 36.4386 23.4712 36.8572 22.7622 36.9079C20.8423 37.0532 18.9696 36.5506 17.7264 36.0586H17.7237H17.7211" stroke="#2B616D" stroke-width="1.777" stroke-miterlimit="10" stroke-linecap="round" stroke-linejoin="round"/>
<path d="M24.9713 68.9399L24.5515 69.4572C20.9311 73.9159 14.8123 69.0559 18.4327 64.5985L19.7203 63.0132L23.0312 58.9332L24.5838 57.0239C27.8059 53.0545 33.926 57.9145 30.7012 61.8825L30.202 62.4972L24.9713 68.9399Z" stroke="#2B616D" stroke-width="1.777" stroke-miterlimit="10" stroke-linecap="round" stroke-linejoin="round"/>
<path d="M19.696 62.9946C16.2088 67.2746 10.2219 62.5333 13.7077 58.2533L14.0588 57.8093H14.0615L16.9729 54.1346C20.0781 50.324 26.1349 55.1213 23.0311 58.9333" stroke="#2B616D" stroke-width="1.777" stroke-miterlimit="10" stroke-linecap="round" stroke-linejoin="round"/>
<path d="M31.9375 72.6773L31.0428 73.7493C27.5664 78.016 21.4947 73.2093 24.9712 68.9399" stroke="#2B616D" stroke-width="1.777" stroke-miterlimit="10" stroke-linecap="round" stroke-linejoin="round"/>
<path d="M30.2047 62.4972C33.299 58.6959 39.4985 63.5066 36.4028 67.3066L36.084 67.6892L31.9645 72.6426" stroke="#2B616D" stroke-width="1.777" stroke-miterlimit="10" stroke-linecap="round" stroke-linejoin="round"/>
<path d="M42.2566 68.9893C42.6225 69.9999 42.5202 71.1786 41.639 72.264L39.321 75.08L37.6258 77.1413C34.3767 81.1413 28.7369 76.6813 31.9376 72.6773C31.947 72.6653 31.9551 72.6546 31.9645 72.6426" stroke="#2B616D" stroke-width="1.777" stroke-miterlimit="10" stroke-linecap="round" stroke-linejoin="round"/>
<path d="M36.1055 67.7066C38.1249 65.2172 41.4184 66.6719 42.2539 68.9866" stroke="#2B616D" stroke-width="1.777" stroke-miterlimit="10" stroke-linecap="round" stroke-linejoin="round"/>
<path d="M67.1683 57.9666H67.1674" stroke="#2B616D" stroke-width="1.777" stroke-miterlimit="10" stroke-linecap="round" stroke-linejoin="round"/>
<path d="M73.4932 54.8239C73.4905 54.8265 73.4905 54.8265 73.4878 54.8292C71.6662 56.6225 69.2741 57.9226 67.1713 57.9666" stroke="#2B616D" stroke-width="1.777" stroke-miterlimit="10" stroke-linecap="round" stroke-linejoin="round"/>
<path d="M57.1713 35.0492C58.0539 35.4999 59.5539 36.1986 60.4163 36.5306C61.7953 37.0625 63.4111 36.8399 64.6422 36.7852" stroke="#2B616D" stroke-width="1.777" stroke-miterlimit="10" stroke-linecap="round" stroke-linejoin="round"/>
<path d="M54.8344 68.2173L57.0771 69.9199C60.9625 72.5893 65.0444 67.4559 62.3926 64.3533" stroke="#2B616D" stroke-width="1.777" stroke-miterlimit="10" stroke-linecap="round" stroke-linejoin="round"/>
<path d="M54.6433 68.0639C54.7052 68.1106 54.7644 68.1559 54.8209 68.2079" stroke="#2B616D" stroke-width="1.777" stroke-miterlimit="10" stroke-linecap="round" stroke-linejoin="round"/>
<path d="M45.2863 60.9639L54.4362 67.9146" stroke="#2B616D" stroke-width="1.777" stroke-miterlimit="10" stroke-linecap="round" stroke-linejoin="round"/>
<path d="M54.4362 67.9146C54.4389 67.9159 54.4416 67.9159 54.4429 67.9186C54.5129 67.9653 54.5775 68.0146 54.6407 68.0639C54.6407 68.0639 54.6407 68.0639 54.6434 68.0639C54.7053 68.1106 54.7644 68.1586 54.8209 68.2079C54.8236 68.2133 54.829 68.2159 54.8344 68.2173C58.1898 71.1519 53.8456 77.0319 49.9184 74.3306" stroke="#2B616D" stroke-width="1.777" stroke-miterlimit="10" stroke-linecap="round" stroke-linejoin="round"/>
<path d="M47.9865 72.9439C51.1441 75.5186 47.4107 80.6239 43.8817 78.1946L39.3209 75.0799" stroke="#2B616D" stroke-width="1.777" stroke-miterlimit="10" stroke-linecap="round" stroke-linejoin="round"/>
<path d="M42.2539 68.9865L42.2566 68.9892L47.7175 72.7412C47.8036 72.8025 47.8883 72.8639 47.9663 72.9292" stroke="#2B616D" stroke-width="1.777" stroke-miterlimit="10" stroke-linecap="round" stroke-linejoin="round"/>
<path d="M49.8351 54.9053L62.3779 64.3359L62.3927 64.3506L64.291 65.6493C68.5976 68.62 73.1611 62.1279 68.8546 59.1573L67.7554 58.3973L67.1715 57.9666H67.1688V57.964H67.1675L48.7399 44.196" stroke="#2B616D" stroke-width="1.777" stroke-miterlimit="10" stroke-linecap="round" stroke-linejoin="round"/>
<path d="M49.9184 74.3306L47.9865 72.9439L47.9663 72.9292" stroke="#2B616D" stroke-width="1.777" stroke-miterlimit="10" stroke-linecap="round" stroke-linejoin="round"/>
<path d="M69.1344 30.9186L64.7781 33.4453C63.9991 33.896 63.7004 34.8679 64.096 35.6733L64.6422 36.7853L73.488 54.8293L73.9845 55.8413C74.3867 56.6613 75.3688 57.0266 76.2164 56.6693L80.8068 54.7386" stroke="#2B616D" stroke-width="1.777" stroke-miterlimit="10" stroke-linecap="round" stroke-linejoin="round"/>
<path d="M13.3943 30.4305L17.5286 32.8385C18.3076 33.2892 18.6036 34.2559 18.2108 35.0612L17.7264 36.0585L17.6847 36.1439L9.14163 53.5705L9.0286 53.8039L8.3169 55.2385C7.91059 56.0532 6.9325 56.4159 6.08761 56.0612L1.73401 54.2265" stroke="#2B616D" stroke-width="1.777" stroke-miterlimit="10" stroke-linecap="round" stroke-linejoin="round"/>
<path d="M48.7399 44.196C44.8262 47.1373 41.6391 48.208 41.4655 48.264L41.4117 48.2813C41.3673 48.296 41.3175 48.3053 41.2704 48.3053C41.2206 48.3053 41.1736 48.296 41.1292 48.2813L41.0753 48.264C40.848 48.1906 35.4934 46.3906 30.0984 40.9733C28.6118 39.4773 27.2624 37.8506 26.0691 36.1053C24.7116 34.1306 23.5479 32 22.5873 29.7333C20.3257 24.404 19.1821 18.296 19.1821 11.5786L19.2211 7.82263C19.2238 7.57997 19.4189 7.38131 19.6665 7.37864C29.0612 7.20531 34.4548 4.64797 41.0511 1.0533C41.1197 1.01597 41.1937 0.999978 41.2704 0.999978C41.3444 0.999978 41.4211 1.01597 41.4884 1.0533C48.0861 4.64797 53.4797 7.20531 62.8744 7.37864C63.1192 7.38131 63.317 7.57997 63.3197 7.82263L63.3587 11.5813C63.3587 18.296 62.2125 24.404 59.9536 29.7333C59.1638 31.604 58.2315 33.3786 57.1714 35.0493C55.8072 37.2 54.2263 39.1813 52.4424 40.9733C51.1844 42.2373 49.9292 43.3026 48.7399 44.196Z" stroke="#2B616D" stroke-width="1.777" stroke-miterlimit="10" stroke-linecap="round" stroke-linejoin="round"/>
<path d="M53.6532 18.2372L40.4578 32.8826L31.5124 24.5292L34.8086 21.1079L40.2223 25.9252L50.1162 15.0559L53.6532 18.2372Z" stroke="#2B616D" stroke-width="1.777" stroke-miterlimit="10" stroke-linecap="round" stroke-linejoin="round"/>
</svg>
