<svg width="83" height="82" viewBox="0 0 83 82" fill="none" xmlns="http://www.w3.org/2000/svg">
<path d="M56.9566 37.6366C57.3357 42.0283 55.4641 49.6383 42.0162 57.8471L41.5015 58.161L40.9852 57.8471C27.5373 49.6383 25.6657 42.0283 26.0431 37.6366C26.0722 36.2693 26.4496 34.9862 27.0895 33.8814C27.1238 33.8145 27.1496 33.7699 27.1599 33.7544C27.1599 33.7544 27.1599 33.751 27.1616 33.751C27.165 33.751 27.165 33.751 27.165 33.751C28.5048 31.5328 30.9083 30.0472 33.6634 30.0077C33.6634 30.0077 33.6874 30.0077 33.7028 30.0077C33.7251 30.0077 33.7474 30.0043 33.7697 30.0043C37.6708 29.8791 40.3333 32.557 40.9886 33.2123L41.5015 33.7235L42.0128 33.2123C42.6681 32.557 45.3306 29.8791 49.2316 30.0043C49.254 30.0043 49.2745 30.0077 49.2968 30.0077C49.3123 30.0077 49.338 30.0077 49.338 30.0077C52.0914 30.0472 54.4966 31.5328 55.8347 33.751C55.8347 33.751 55.8347 33.751 55.8381 33.751C55.8415 33.751 55.8415 33.7544 55.8415 33.7544C55.8518 33.7699 55.8758 33.8145 55.9101 33.8814C56.55 34.9862 56.9291 36.2693 56.9566 37.6366Z" fill="#FA8D62"/>
<path d="M41.5015 33.7235L40.9886 33.2123C40.3333 32.557 37.6708 29.8791 33.7697 30.0043C33.7474 30.0043 33.7251 30.0077 33.7028 30.0077C33.6874 30.0077 33.6634 30.0077 33.6634 30.0077C30.9083 30.0472 28.5048 31.5328 27.165 33.751C27.165 33.751 27.165 33.751 27.1616 33.751C27.1599 33.751 27.1599 33.7544 27.1599 33.7544C27.1496 33.7699 27.1238 33.8145 27.0895 33.8814C26.4496 34.9862 26.0722 36.2693 26.0431 37.6366C25.6657 42.0283 27.5373 49.6383 40.9852 57.8471L41.5015 58.161L42.0162 57.8471C55.4641 49.6383 57.3357 42.0283 56.9566 37.6366C56.9291 36.2693 56.55 34.9862 55.9101 33.8814C55.8758 33.8145 55.8518 33.7699 55.8415 33.7544C55.8415 33.7544 55.8415 33.751 55.8381 33.751C55.8347 33.751 55.8347 33.751 55.8347 33.751C54.4966 31.5328 52.0914 30.0472 49.338 30.0077C49.338 30.0077 49.3123 30.0077 49.2968 30.0077C49.2745 30.0077 49.254 30.0043 49.2316 30.0043C45.3306 29.8791 42.6681 32.557 42.0128 33.2123L41.5015 33.7235Z" stroke="#2B616D" stroke-width="1.777" stroke-miterlimit="10" stroke-linecap="round" stroke-linejoin="round"/>
<path d="M70.3053 41.1162C70.3053 25.1558 57.368 12.2188 41.408 12.2188C25.448 12.2188 12.5133 25.1558 12.5133 41.1162C12.5133 57.0746 25.448 70.0136 41.408 70.0136C57.368 70.0136 70.3053 57.0746 70.3053 41.1162ZM81.816 41.9735L80.42 51.6803L75.6493 52.3651L72.3333 59.6266L74.9387 63.6828L68.5173 71.0932L64.132 69.0923L57.416 73.4068L57.4146 78.2292L48.008 80.9923L45.4 76.936H37.416L34.8107 80.9923L25.4013 78.2292V73.4068L18.684 69.0923L14.3 71.0932L7.88 63.6828L10.4826 59.6266L7.16667 52.3651L2.396 51.6803L1 41.9735L5.38665 39.9694L6.51999 32.0694L2.87866 28.9104L6.952 19.9907L11.724 20.6771L16.9507 14.6427L15.5933 10.0189L23.844 4.71725L27.488 7.87351L35.1453 5.62245L36.5053 1.00005H46.3107L47.6693 5.62245L55.3307 7.87351L58.9747 4.71725L67.2226 10.0189L65.8653 14.6427L71.0933 20.6771L75.864 19.9907L79.9373 28.9104L76.296 32.0694L77.432 39.9694L81.816 41.9735Z" fill="white"/>
<path d="M35.1453 5.62245L36.5053 1.00005H46.3107L47.6693 5.62245L55.3307 7.87352L58.9747 4.71725L67.2227 10.0189L65.8653 14.6427L71.0933 20.6771L75.864 19.9907L79.9373 28.9104L76.296 32.0694L77.432 39.9694L81.816 41.9735L80.42 51.6803L75.6493 52.3651L72.3333 59.6266L74.9387 63.6828L68.5173 71.0932L64.132 69.0923L57.416 73.4068L57.4146 78.2292L48.008 80.9923L45.4 76.936H37.416L34.8107 80.9923L25.4013 78.2292V73.4068L18.684 69.0923L14.3 71.0932L7.88 63.6828L10.4826 59.6266L7.16667 52.3651L2.396 51.6803L1 41.9735L5.38665 39.9694L6.51999 32.0694L2.87866 28.9104L6.952 19.9907L11.724 20.6771L16.9507 14.6427L15.5933 10.0189L23.844 4.71725L27.488 7.87352L35.1453 5.62245Z" stroke="#2B616D" stroke-width="1.777" stroke-miterlimit="10" stroke-linecap="round" stroke-linejoin="round"/>
<path d="M12.5133 41.1162C12.5133 57.0746 25.448 70.0137 41.408 70.0137C57.368 70.0137 70.3053 57.0746 70.3053 41.1162C70.3053 25.1558 57.368 12.2189 41.408 12.2189C25.448 12.2189 12.5133 25.1558 12.5133 41.1162Z" stroke="#2B616D" stroke-width="1.777" stroke-miterlimit="10" stroke-linecap="round" stroke-linejoin="round"/>
</svg>
