<?xml version="1.0" encoding="UTF-8" standalone="no"?>
<!-- Created with Inkscape (http://www.inkscape.org/) -->

<svg
   version="1.1"
   id="svg2"
   width="4000"
   height="2666.6667"
   viewBox="0 0 4000 2666.6667"
   sodipodi:docname="iStock-1361026850.eps"
   xmlns:inkscape="http://www.inkscape.org/namespaces/inkscape"
   xmlns:sodipodi="http://sodipodi.sourceforge.net/DTD/sodipodi-0.dtd"
   xmlns="http://www.w3.org/2000/svg"
   xmlns:svg="http://www.w3.org/2000/svg">
  <defs
     id="defs6">
    <clipPath
       clipPathUnits="userSpaceOnUse"
       id="clipPath22">
      <path
         d="m 22285.2,9553.2 c -393.7,404.3 -382.3,1052.9 27.6,1443 404.1,384.6 1050.5,368.1 1434.9,-36.3 71.7,-75.5 129.4,-159.1 173.5,-247.8 l 1837.7,1789.4 -4926.7,5059.7 -1837.8,-1789.5 c -44,88.7 -101.8,172.4 -173.5,247.8 -384.3,404.4 -1030.7,420.9 -1434.8,36.3 -409.9,-390.1 -421.4,-1038.7 -27.7,-1443 75.7,-77.7 160.9,-140.7 251.9,-188.9 L 15772.5,12634.4 20699.3,7574.8 22537,9364.3 c -91,48.2 -176.1,111.1 -251.8,188.9 z"
         id="path20" />
    </clipPath>
    <clipPath
       clipPathUnits="userSpaceOnUse"
       id="clipPath42">
      <path
         d="m 21118.3,3801.7 c -550.7,179.9 -849.5,775.2 -662.8,1325.3 184.1,542.4 779.8,835.5 1322.1,651 101.1,-34.4 193.5,-82.9 275.8,-142.6 l 818,2503.3 -6892.1,2252 -818,-2503.4 c -82.3,59.7 -174.7,108.2 -275.8,142.6 -542.3,184.5 -1138,-108.6 -1322.1,-651 -186.7,-550.1 112.1,-1145.3 662.8,-1325.3 105.9,-34.6 213.4,-51.2 319.1,-51.7 l -817.9,-2503.3 2503.3,-818 c 0.5,101.7 15.9,205 47.8,306.9 171.3,546.6 759.6,854.3 1306.1,682.6 554.2,-174.1 858.2,-766.7 678.2,-1317.4 -34.6,-105.9 -84.6,-202.5 -146.7,-288.1 l 2503.4,-817.9 817.9,2503.3 c -105.7,0.5 -213.2,17.1 -319.1,51.7 z"
         id="path40" />
    </clipPath>
    <clipPath
       clipPathUnits="userSpaceOnUse"
       id="clipPath56">
      <path
         d="m 11673.3,16327.1 c 274.9,-193.7 339.2,-574.9 141.8,-848.2 -194.7,-269.6 -575.1,-330.6 -844.5,-135.8 -50.2,36.3 -93.3,79 -128.7,126.2 l -880.67,-1249.4 3439.67,-2424.5 880.6,1249.4 c 35.5,-47.2 78.5,-89.9 128.8,-126.2 269.4,-194.8 649.8,-133.8 844.5,135.8 197.4,273.3 133.1,654.5 -141.8,848.2 -52.8,37.3 -109.6,64.8 -168.2,83.1 l 880.6,1249.4 -1249.3,880.6 c -17.6,-56.3 -43.8,-111 -78.9,-162.1 -188.2,-274 -567.1,-344.4 -841,-156 -277.8,191.1 -345.3,571.7 -151.6,846.6 37.2,52.8 81.5,97.9 130.5,134.8 l -1249.4,880.6 -880.6,-1249.4 c 58.6,-18.3 115.4,-45.8 168.2,-83.1 z"
         id="path54" />
    </clipPath>
    <clipPath
       clipPathUnits="userSpaceOnUse"
       id="clipPath100">
      <path
         d="m 4551.31,8478.4 h 6848.99 c 0,0 1247.7,5774.3 -119.7,7393.8 -1032,1222.4 -3215.5,2581.7 -4768.61,910.9 C 4663.2,14794.1 4551.31,8478.4 4551.31,8478.4 Z"
         id="path98" />
    </clipPath>
    <clipPath
       clipPathUnits="userSpaceOnUse"
       id="clipPath164">
      <path
         d="m 17707.5,10612 h 5698.3 c 0,0 580.4,5747.3 -439,7309.5 -1274.5,1953.2 -4111.6,1090.6 -5249.2,332.1 -1256.1,-837.5 -3256.8,-3033.7 -3121.7,-4537.3 101.8,-1133.2 3111.6,-3104.3 3111.6,-3104.3 z"
         id="path162" />
    </clipPath>
    <clipPath
       clipPathUnits="userSpaceOnUse"
       id="clipPath254">
      <path
         d="m 13127.2,1946.4 h 9645 c 0,0 3102.4,9585.2 -4004,10203.7 -7106.3,618.6 -5641,-10203.7 -5641,-10203.7 z"
         id="path252" />
    </clipPath>
  </defs>
  <sodipodi:namedview
     id="namedview4"
     pagecolor="#ffffff"
     bordercolor="#000000"
     borderopacity="0.25"
     inkscape:showpageshadow="2"
     inkscape:pageopacity="0.0"
     inkscape:pagecheckerboard="0"
     inkscape:deskcolor="#d1d1d1" />
  <g
     id="g8"
     inkscape:groupmode="layer"
     inkscape:label="ink_ext_XXXXXX"
     transform="matrix(1.3333333,0,0,-1.3333333,0,2666.6667)">
    <g
       id="g10"
       transform="scale(0.1)">
      <path
         d="M 0,0 H 30000 V 20000 H 0 V 0"
         style="fill:rgba(250, 141, 98, 0.17);fill-opacity:1;fill-rule:nonzero;stroke:none"
         id="path12" />
      <path
         d="m 22285.2,9553.2 c -393.7,404.3 -382.3,1052.9 27.6,1443 404.1,384.6 1050.5,368.1 1434.9,-36.3 71.7,-75.5 129.4,-159.1 173.5,-247.8 l 1837.7,1789.4 -4926.7,5059.7 -1837.8,-1789.5 c -44,88.7 -101.8,172.4 -173.5,247.8 -384.3,404.4 -1030.7,420.9 -1434.8,36.3 -409.9,-390.1 -421.4,-1038.7 -27.7,-1443 75.7,-77.7 160.9,-140.7 251.9,-188.9 L 15772.5,12634.4 20699.3,7574.8 22537,9364.3 c -91,48.2 -176.1,111.1 -251.8,188.9"
         style="fill:#4e9dbf;fill-opacity:1;fill-rule:nonzero;stroke:none"
         id="path14" />
      <g
         id="g16">
        <g
           id="g18"
           clip-path="url(#clipPath22)">
          <path
             d="m 25666.9,9789.9 c -1115.7,1930.7 -3202.6,3229.9 -5592.8,3229.9 -1706.8,0 -3258.9,-662.4 -4413.2,-1744.2"
             style="fill:none;stroke:#fffbf5;stroke-width:56;stroke-linecap:round;stroke-linejoin:round;stroke-miterlimit:10;stroke-dasharray:none;stroke-opacity:1"
             id="path24" />
        </g>
      </g>
      <path
         d="m 10522.4,3041.7 892.1,1585.4"
         style="fill:none;stroke:#ffb954;stroke-width:56;stroke-linecap:round;stroke-linejoin:round;stroke-miterlimit:10;stroke-dasharray:none;stroke-opacity:1"
         id="path26" />
      <path
         d="m 10175.8,4280.4 1585.3,-892"
         style="fill:none;stroke:#ffb954;stroke-width:56;stroke-linecap:round;stroke-linejoin:round;stroke-miterlimit:10;stroke-dasharray:none;stroke-opacity:1"
         id="path28" />
      <path
         d="m 11761.1,3388.4 -1238.7,-346.7 -346.6,1238.7 1238.7,346.7 z"
         style="fill:none;stroke:#ffb954;stroke-width:56;stroke-linecap:round;stroke-linejoin:round;stroke-miterlimit:10;stroke-dasharray:none;stroke-opacity:1"
         id="path30" />
      <path
         d="m 7246.16,8648.3 c 488.71,282.1 1114.58,111.5 1391.87,-381.7 273.41,-486.4 98.38,-1108.8 -388.13,-1381.9 -90.74,-50.9 -186.05,-86.4 -282.86,-107.2 l 1282.54,-2221.4 6115.92,3531 -1282.5,2221.4 c 96.8,20.9 192.1,56.3 282.8,107.2 486.5,273.1 661.6,895.6 388.2,1381.9 -277.3,493.2 -903.2,663.8 -1391.9,381.7 -94,-54.3 -176,-121.4 -245.1,-197.7 L 11834.5,14203 5718.54,10672 7001.08,8450.6 c 69.13,76.3 151.09,143.4 245.08,197.7"
         style="fill:#ffb954;fill-opacity:1;fill-rule:nonzero;stroke:none"
         id="path32" />
      <path
         d="m 21118.3,3801.7 c -550.7,179.9 -849.5,775.2 -662.8,1325.3 184.1,542.4 779.8,835.5 1322.1,651 101.1,-34.4 193.5,-82.9 275.8,-142.6 l 818,2503.3 -6892.1,2252 -818,-2503.4 c -82.3,59.7 -174.7,108.2 -275.8,142.6 -542.3,184.5 -1138,-108.6 -1322.1,-651 -186.7,-550.1 112.1,-1145.3 662.8,-1325.3 105.9,-34.6 213.4,-51.2 319.1,-51.7 l -817.9,-2503.3 2503.3,-818 c 0.5,101.7 15.9,205 47.8,306.9 171.3,546.6 759.6,854.3 1306.1,682.6 554.2,-174.1 858.2,-766.7 678.2,-1317.4 -34.6,-105.9 -84.6,-202.5 -146.7,-288.1 l 2503.4,-817.9 817.9,2503.3 c -105.7,0.5 -213.2,17.1 -319.1,51.7"
         style="fill:#e64c4c;fill-opacity:1;fill-rule:nonzero;stroke:none"
         id="path34" />
      <g
         id="g36">
        <g
           id="g38"
           clip-path="url(#clipPath42)">
          <path
             d="M 24299.4,9379.6 12569.8,4556.1"
             style="fill:none;stroke:#ffb954;stroke-width:56;stroke-linecap:round;stroke-linejoin:round;stroke-miterlimit:10;stroke-dasharray:none;stroke-opacity:1"
             id="path44" />
        </g>
      </g>
      <path
         d="m 15800.4,9843.1 -639.1,-1955.8 c -82.3,59.7 -174.7,108.2 -275.8,142.6 -542.3,184.5 -1138,-108.6 -1322.1,-651"
         style="fill:none;stroke:#2a1b38;stroke-width:56;stroke-linecap:round;stroke-linejoin:round;stroke-miterlimit:10;stroke-dasharray:none;stroke-opacity:1"
         id="path46" />
      <path
         d="m 11673.3,16327.1 c 274.9,-193.7 339.2,-574.9 141.8,-848.2 -194.7,-269.6 -575.1,-330.6 -844.5,-135.8 -50.2,36.3 -93.3,79 -128.7,126.2 l -880.67,-1249.4 3439.67,-2424.5 880.6,1249.4 c 35.5,-47.2 78.5,-89.9 128.8,-126.2 269.4,-194.8 649.8,-133.8 844.5,135.8 197.4,273.3 133.1,654.5 -141.8,848.2 -52.8,37.3 -109.6,64.8 -168.2,83.1 l 880.6,1249.4 -1249.3,880.6 c -17.6,-56.3 -43.8,-111 -78.9,-162.1 -188.2,-274 -567.1,-344.4 -841,-156 -277.8,191.1 -345.3,571.7 -151.6,846.6 37.2,52.8 81.5,97.9 130.5,134.8 l -1249.4,880.6 -880.6,-1249.4 c 58.6,-18.3 115.4,-45.8 168.2,-83.1"
         style="fill:#e64c4c;fill-opacity:1;fill-rule:nonzero;stroke:none"
         id="path48" />
      <g
         id="g50">
        <g
           id="g52"
           clip-path="url(#clipPath56)">
          <path
             d="m 10550.9,17220.7 1615,-5770.9"
             style="fill:none;stroke:#fffbf5;stroke-width:56;stroke-linecap:round;stroke-linejoin:round;stroke-miterlimit:10;stroke-dasharray:none;stroke-opacity:1"
             id="path58" />
        </g>
      </g>
      <path
         d="m 15446.2,16836.6 c 0,0.1 0,0.2 0,0.3 -96.6,644 -696.9,1087.8 -1340.9,991.2 -644,-96.6 -1087.8,-696.9 -991.2,-1340.9 74.3,-604.1 594.2,-941.7 908.2,-1287.8 l 466.7,70 466.6,69.9 c 198.7,423 596.6,898.1 490.6,1497.3"
         style="fill:#ffb954;fill-opacity:1;fill-rule:nonzero;stroke:none"
         id="path60" />
      <path
         d="m 14331.5,15078 c 0,0 -130.3,1395.8 -421.6,1729.7 -291.2,333.8 -432.5,-208.6 -92.9,-572.9 239.7,-257.1 512.7,-217.4 558.8,-210.5 46,6.9 202.4,7.2 410.1,308.6 282.6,410 2.5,667 -178,262.4 -180.5,-404.5 87.8,-1462.7 87.8,-1462.7"
         style="fill:none;stroke:#fffbf5;stroke-width:56;stroke-linecap:round;stroke-linejoin:round;stroke-miterlimit:10;stroke-dasharray:none;stroke-opacity:1"
         id="path62" />
      <path
         d="m 14663.5,14105.4 v 0 c -319.9,-48 -618.1,172.4 -666.1,492.3 l -87.7,584.8 1158.5,173.7 87.7,-584.8 c 47.9,-319.9 -172.5,-618.1 -492.4,-666"
         style="fill:#2a1b38;fill-opacity:1;fill-rule:nonzero;stroke:none"
         id="path64" />
      <path
         d="m 14177.4,14484.3 1029.3,724.9"
         style="fill:none;stroke:#ffffff;stroke-width:51.9832;stroke-linecap:round;stroke-linejoin:round;stroke-miterlimit:10;stroke-dasharray:none;stroke-opacity:1"
         id="path66" />
      <path
         d="m 14065.3,14053.3 1005.5,708.2"
         style="fill:none;stroke:#ffffff;stroke-width:51.9832;stroke-linecap:round;stroke-linejoin:round;stroke-miterlimit:10;stroke-dasharray:none;stroke-opacity:1"
         id="path68" />
      <path
         d="m 13528.2,18134.2 -150.6,328.5"
         style="fill:none;stroke:#2a1b38;stroke-width:56;stroke-linecap:round;stroke-linejoin:round;stroke-miterlimit:10;stroke-dasharray:none;stroke-opacity:1"
         id="path70" />
      <path
         d="m 14961,18168.8 317.5,717.5"
         style="fill:none;stroke:#ffb954;stroke-width:56;stroke-linecap:round;stroke-linejoin:round;stroke-miterlimit:10;stroke-dasharray:none;stroke-opacity:1"
         id="path72" />
      <path
         d="m 15825.4,17324.3 482.7,212.9"
         style="fill:none;stroke:#2a1b38;stroke-width:56;stroke-linecap:round;stroke-linejoin:round;stroke-miterlimit:10;stroke-dasharray:none;stroke-opacity:1"
         id="path74" />
      <path
         d="m 6328.84,17383.6 345.84,-355.2"
         style="fill:none;stroke:#2a1b38;stroke-width:56;stroke-linecap:round;stroke-linejoin:round;stroke-miterlimit:10;stroke-dasharray:none;stroke-opacity:1"
         id="path76" />
      <path
         d="m 5636.51,16062.7 892.91,-135.4"
         style="fill:none;stroke:#e64c4c;stroke-width:56;stroke-linecap:round;stroke-linejoin:round;stroke-miterlimit:10;stroke-dasharray:none;stroke-opacity:1"
         id="path78" />
      <path
         d="m 7202.84,2928.2 853.91,345"
         style="fill:none;stroke:#2a1b38;stroke-width:56;stroke-linecap:round;stroke-linejoin:round;stroke-miterlimit:10;stroke-dasharray:none;stroke-opacity:1"
         id="path80" />
      <path
         d="m 25110.8,15478.8 608.1,433.1"
         style="fill:none;stroke:#2a1b38;stroke-width:56;stroke-linecap:round;stroke-linejoin:round;stroke-miterlimit:10;stroke-dasharray:none;stroke-opacity:1"
         id="path82" />
      <path
         d="m 25051.8,11320.7 437.1,-303.3"
         style="fill:none;stroke:#ffb954;stroke-width:56;stroke-linecap:round;stroke-linejoin:round;stroke-miterlimit:10;stroke-dasharray:none;stroke-opacity:1"
         id="path84" />
      <path
         d="m 23860.4,4959.8 877.9,-403.7"
         style="fill:none;stroke:#2a1b38;stroke-width:56;stroke-linecap:round;stroke-linejoin:round;stroke-miterlimit:10;stroke-dasharray:none;stroke-opacity:1"
         id="path86" />
      <path
         d="m 5896.53,5875.8 h 4064.7"
         style="fill:none;stroke:#e64c4c;stroke-width:56;stroke-linecap:round;stroke-linejoin:round;stroke-miterlimit:10;stroke-dasharray:none;stroke-opacity:1"
         id="path88" />
      <path
         d="m 4659.48,5875.8 h 937.77"
         style="fill:none;stroke:#2a1b38;stroke-width:56;stroke-linecap:round;stroke-linejoin:round;stroke-miterlimit:10;stroke-dasharray:none;stroke-opacity:1"
         id="path90" />
      <path
         d="m 23854.6,6194.2 710.8,53.2"
         style="fill:none;stroke:#e64c4c;stroke-width:56;stroke-linecap:round;stroke-linejoin:round;stroke-miterlimit:10;stroke-dasharray:none;stroke-opacity:1"
         id="path92" />
      <g
         id="g94">
        <g
           id="g96"
           clip-path="url(#clipPath100)">
          <path
             d="m 8725.03,13710.9 -530.87,-65.2 -239.93,1902.6 530.88,65.2 239.92,-1902.6"
             style="fill:#e6906f;fill-opacity:1;fill-rule:nonzero;stroke:none"
             id="path102" />
          <path
             d="m 8149.01,14970.7 c 95.91,-117 207.7,-292.8 470.05,-419.5 l 36.51,-289.5 c -128.67,45.4 -215.58,91.8 -307.76,197.5 -158.9,182.3 -199.69,512.6 -198.8,511.5"
             style="fill:#d65a50;fill-opacity:1;fill-rule:nonzero;stroke:none"
             id="path104" />
          <path
             d="m 7795.15,16305.4 c 92.41,418.8 1017.28,391.1 1017.28,391.1 105.19,-282.6 274.73,-1286.4 270.27,-1714.2 -2.9,-276.9 -38.29,-416.6 -220.92,-447.1 -186.69,-31.1 -488.6,74.4 -717.46,454.9 -281.37,467.7 -404.03,1066.8 -349.17,1315.3"
             style="fill:#f3b190;fill-opacity:1;fill-rule:nonzero;stroke:none"
             id="path106" />
          <path
             d="m 7730.89,16744.2 c 220.42,275.5 1451.55,729.3 1382,-642.4 -204.53,22.6 -541.24,-75.9 -803.88,-77.5 -145.5,-0.8 -271.14,48.2 -332.14,116.1 43.49,-261.1 90.49,-574.5 90.49,-574.5 l -91.98,-34.1 c 0,0 24.2,-402.3 45.36,-510.9 -129.82,172.7 -466.81,623.6 -549.98,912 -84.47,292.9 -120.1,726.5 260.13,811.3"
             style="fill:#2a1b38;fill-opacity:1;fill-rule:nonzero;stroke:none"
             id="path108" />
          <path
             d="m 8004.58,15536.8 c 76.37,-112.2 75.36,-246 -2.25,-298.8 -77.6,-52.8 -202.42,-4.6 -278.79,107.6 -76.37,112.3 -75.36,246.1 2.25,298.9 77.61,52.8 202.43,4.6 278.79,-107.7"
             style="fill:#f3b190;fill-opacity:1;fill-rule:nonzero;stroke:none"
             id="path110" />
          <path
             d="m 7994.35,15393.4 c -17.64,83.9 -83.78,155.8 -165.91,180.3"
             style="fill:none;stroke:#d65a50;stroke-width:56.5897;stroke-linecap:round;stroke-linejoin:round;stroke-miterlimit:10;stroke-dasharray:none;stroke-opacity:1"
             id="path112" />
          <path
             d="m 8805.72,15954 207.11,37.9 c 0,0 -208.1,141.4 -207.11,-37.9"
             style="fill:#2a1b38;fill-opacity:1;fill-rule:nonzero;stroke:none"
             id="path114" />
          <path
             d="m 8635.45,15926.5 -287.54,-35.1 c 0,0 154.52,211.7 287.54,35.1"
             style="fill:#2a1b38;fill-opacity:1;fill-rule:nonzero;stroke:none"
             id="path116" />
          <path
             d="m 8562.03,15810.7 c 4.86,-24.9 -8.11,-48.3 -28.98,-52.4 -20.87,-4.1 -41.73,12.7 -46.59,37.6 -4.86,24.8 8.12,48.2 28.98,52.3 20.87,4.1 41.73,-12.7 46.59,-37.5"
             style="fill:#2a1b38;fill-opacity:1;fill-rule:nonzero;stroke:none"
             id="path118" />
          <path
             d="m 8956.97,15877.2 c 4.86,-24.8 -8.12,-48.2 -28.98,-52.3 -20.87,-4.1 -41.73,12.7 -46.59,37.5 -4.86,24.9 8.11,48.3 28.98,52.4 20.87,4.1 41.72,-12.7 46.59,-37.6"
             style="fill:#2a1b38;fill-opacity:1;fill-rule:nonzero;stroke:none"
             id="path120" />
          <path
             d="m 8749.09,15125.5 c -175.1,-3.7 -285.95,218.9 -285.95,218.9"
             style="fill:none;stroke:#d65a50;stroke-width:52.6496;stroke-linecap:round;stroke-linejoin:round;stroke-miterlimit:10;stroke-dasharray:none;stroke-opacity:1"
             id="path122" />
          <path
             d="m 8751.11,15961.1 c -48.63,-168.2 -31.42,-337.3 70.12,-483.5 17.35,-25 35.77,-50.8 39.93,-80.5 7.89,-56.2 -57.28,-82.8 -93.78,-87.2"
             style="fill:none;stroke:#d65a50;stroke-width:52.6496;stroke-linecap:round;stroke-linejoin:round;stroke-miterlimit:10;stroke-dasharray:none;stroke-opacity:1"
             id="path124" />
          <path
             d="m 7765.61,16722.4 c -96.39,20 -199.75,4.4 -285.97,-43.1"
             style="fill:none;stroke:#2a1b38;stroke-width:52.6496;stroke-linecap:round;stroke-linejoin:round;stroke-miterlimit:10;stroke-dasharray:none;stroke-opacity:1"
             id="path126" />
          <path
             d="m 6815.26,14100.7 c 692.06,124.4 1935.38,-21.8 2590.83,-148.6 507.17,-98 618.31,-1178.5 601.41,-1735.2 -41.37,-1370 -141.59,-2346.5 149.7,-3744.6 H 6535.8 c -11.42,230.6 86.21,947.7 39.92,2108.5 -49.69,1246.1 -561.89,3375.9 239.54,3519.9"
             style="fill:#4e9dbf;fill-opacity:1;fill-rule:nonzero;stroke:none"
             id="path128" />
          <path
             d="m 10013,11358.6 c 0,0 68.8,-189.2 229.7,-1707.1 l 892.5,505.2 c -24.8,609.7 -33.3,902 -58.3,1165.1 l -1063.9,36.8"
             style="fill:#f3b190;fill-opacity:1;fill-rule:nonzero;stroke:none"
             id="path130" />
          <path
             d="m 10879.7,10475.9 c -290.6,-21.4 -551.3,-348.7 -629.9,-727.2 -64,-605.8 212.5,-2196.9 212.5,-2196.9 l 569.9,-93.1 c 0,0 15.4,369.9 43.5,749.5 40.5,546.3 69.4,1326.1 66.5,1758.4 -3.5,518.8 -99.8,521.3 -262.5,509.3"
             style="fill:#f3b190;fill-opacity:1;fill-rule:nonzero;stroke:none"
             id="path132" />
          <path
             d="m 9181.92,13988.9 c 1172.18,-205.6 1354.38,-436 1585.28,-951.5 184,-411 245,-941.3 309.7,-1715.6 -772.3,17.8 -1732.48,1.7 -1732.48,1.7 l -162.5,2665.4"
             style="fill:#4e9dbf;fill-opacity:1;fill-rule:nonzero;stroke:none"
             id="path134" />
          <path
             d="m 9136.29,13999.8 c -46.55,-485.4 -952.64,-651.1 -1633.33,148.1 637.5,0.5 1266.72,-79.8 1633.33,-148.1"
             style="fill:#e6906f;fill-opacity:1;fill-rule:nonzero;stroke:none"
             id="path136" />
          <path
             d="m 5670.66,12122.8 c -8.31,-137.2 -23.27,-500.8 -8.12,-698.1 l 983.02,101 17.59,936.3 -992.49,-339.2"
             style="fill:#e6906f;fill-opacity:1;fill-rule:nonzero;stroke:none"
             id="path138" />
          <path
             d="m 7226.99,14140.2 c -967.18,-15.8 -1374.91,-453.7 -1459.07,-985.3 -57.11,-360.6 -65.66,-606.7 -97.26,-1032.1 l 1474.31,133.7 82.02,1883.7"
             style="fill:#4e9dbf;fill-opacity:1;fill-rule:nonzero;stroke:none"
             id="path140" />
          <path
             d="m 8048.91,13852.7 c 88.3,76 180.16,200.1 180.16,200.1 0,0 -42.01,456.4 -93.04,591.2 -51.03,134.9 -193.1,427.9 -193.1,427.9 0,0 119.6,55.2 213.35,-36.4 85.35,-83.5 197.93,-332.8 333.66,-372 135.71,-39.3 574.31,162.8 574.31,162.8 l 13.38,80.4 c 0,0 92.09,-35.6 125.97,-87.1 29.43,-44.7 14.84,-72.2 2.79,-91.4 -23.53,-37.6 -119.69,-113.2 -119.69,-113.2 0,0 102.55,-112.8 113.2,-164.9 6.96,-34.1 -2.68,-122.2 -2.68,-122.2 0,0 47.21,-240.6 -1.3,-357.2 -46.83,-112.5 -527.9,-375.2 -527.9,-375.2 0,0 -102.6,-49.3 -153.27,-137.9 l -465.84,395.1"
             style="fill:#f3b190;fill-opacity:1;fill-rule:nonzero;stroke:none"
             id="path142" />
          <path
             d="m 8514.75,13457.6 c -490.2,-559.4 -1723.42,-2253 -2243.08,-2589.3 -589.19,-381.3 -767.28,713.8 -462.59,1050.6 320.3,354 1818.19,1495.1 2239.83,1933.8 l 465.84,-395.1"
             style="fill:#f3b190;fill-opacity:1;fill-rule:nonzero;stroke:none"
             id="path144" />
          <path
             d="m 6122.45,11003.3 c -68.13,18.3 -152.37,78.9 -179.88,158.6"
             style="fill:none;stroke:#d65a50;stroke-width:53.381;stroke-linecap:round;stroke-linejoin:round;stroke-miterlimit:10;stroke-dasharray:none;stroke-opacity:1"
             id="path146" />
          <path
             d="m 8028.38,15088.4 c 34.65,-0.9 98.74,-28.7 139.6,-68.6 85.35,-83.5 186.23,-317.1 321.96,-356.3 135.71,-39.3 526.19,136.4 526.19,136.4"
             style="fill:none;stroke:#d65a50;stroke-width:53.381;stroke-linecap:round;stroke-linejoin:round;stroke-miterlimit:10;stroke-dasharray:none;stroke-opacity:1"
             id="path148" />
        </g>
      </g>
      <path
         d="M 12411.4,10915.2 H 9413.39 c -120.33,0 -227.4,-76.4 -266.58,-190.2 L 8373.25,8478.4 h 2997.95 c 120.4,0 227.5,76.4 266.6,190.2 l 773.6,2246.6"
         style="fill:#2a1b38;fill-opacity:1;fill-rule:nonzero;stroke:none"
         id="path150" />
      <path
         d="M 10968.4,8608.7 H 7170.65 c -71.95,0 -130.29,-58.3 -130.29,-130.3 v 0 h 3928.04 v 130.3"
         style="fill:#2a1b38;fill-opacity:1;fill-rule:nonzero;stroke:none"
         id="path152" />
      <path
         d="M 11921,8484.6 H 5683.71"
         style="fill:none;stroke:#2a1b38;stroke-width:56;stroke-linecap:round;stroke-linejoin:round;stroke-miterlimit:10;stroke-dasharray:none;stroke-opacity:1"
         id="path154" />
      <path
         d="M 14274.8,8478.4 H 12243.9"
         style="fill:none;stroke:#fffbf5;stroke-width:56;stroke-linecap:round;stroke-linejoin:round;stroke-miterlimit:10;stroke-dasharray:none;stroke-opacity:1"
         id="path156" />
      <g
         id="g158">
        <g
           id="g160"
           clip-path="url(#clipPath164)">
          <path
             d="m 21478.4,17661.5 c 266,178.2 862.4,-376.2 331.1,-1305.6 171.9,69.1 380.6,31.4 500.1,-92 119.5,-123.3 161.3,-294.2 160.5,-459.4 -1.3,-235.6 -81.8,-470.4 -211.6,-679.8 -129.7,-209.4 -307.5,-394.5 -506.5,-556.5 -282.6,8.5 -590.6,82.3 -839.5,194.7 -248.9,112.3 -759.1,431.5 -886.2,651.9 -127,220.4 -189.6,600.6 225.3,743.9 -202.5,229.2 -319.1,672.3 -324.8,967.8 -3.9,201.8 -7.2,670.2 230.2,870.6 72.9,61.5 615.2,520.1 1321.4,-335.6"
             style="fill:#2a1b38;fill-opacity:1;fill-rule:nonzero;stroke:none"
             id="path166" />
          <path
             d="m 21154.2,17937.2 c 217.5,-205.3 380.1,-896.9 126.4,-1228.9 -104.8,-137.1 -388,-306.1 -617.8,-350 38.2,554.6 132.6,1207.3 491.4,1578.9"
             style="fill:#2a1b38;fill-opacity:1;fill-rule:nonzero;stroke:none"
             id="path168" />
          <path
             d="m 20605.6,14947.2 286.2,1756.7 -389.6,63.5 -286.2,-1756.7 389.6,-63.5"
             style="fill:#f3b190;fill-opacity:1;fill-rule:nonzero;stroke:none"
             id="path170" />
          <path
             d="m 20826.6,16560.9 c -65.6,-297.5 -236,-608.5 -485.3,-783.3 l 50.2,310 c 152.9,60.7 307.5,242.4 435.1,473.3"
             style="fill:#d65a50;fill-opacity:1;fill-rule:nonzero;stroke:none"
             id="path172" />
          <path
             d="m 20089.6,16121.1 c 82.2,-147.4 186.6,-88.3 248.4,-60.5 269.8,121.7 519.1,451.5 653.9,894.3 78.5,257.8 68.9,320.1 93.7,588.8 -176.6,236.2 -535.6,499.3 -828.9,434.2 -191.6,-552.7 -356.3,-1517.8 -167.1,-1856.8"
             style="fill:#f3b190;fill-opacity:1;fill-rule:nonzero;stroke:none"
             id="path174" />
          <path
             d="m 20449.6,17257.6 204.8,-64.8 c 0,0 -121.1,188.2 -204.8,64.8"
             style="fill:#2a1b38;fill-opacity:1;fill-rule:nonzero;stroke:none"
             id="path176" />
          <path
             d="m 20457.7,17129.8 c -6.1,-23.4 4.7,-46.6 24.2,-51.7 19.5,-5.1 40.4,9.7 46.5,33.1 6.2,23.5 -4.7,46.6 -24.2,51.7 -19.5,5.1 -40.3,-9.7 -46.5,-33.1"
             style="fill:#2a1b38;fill-opacity:1;fill-rule:nonzero;stroke:none"
             id="path178" />
          <path
             d="m 20266.9,17287.1 -177.2,18.8 c 0,0 149.7,117.9 177.2,-18.8"
             style="fill:#2a1b38;fill-opacity:1;fill-rule:nonzero;stroke:none"
             id="path180" />
          <path
             d="m 20190.6,17176.1 c -2.2,-23.7 -18.7,-41.5 -36.9,-39.9 -18.2,1.7 -31.2,22.2 -29,45.9 2.1,23.7 18.6,41.6 36.8,39.9 18.2,-1.6 31.2,-22.2 29.1,-45.9"
             style="fill:#2a1b38;fill-opacity:1;fill-rule:nonzero;stroke:none"
             id="path182" />
          <path
             d="m 20319.2,17247.9 c -14.7,-121 -44.5,-217.9 -101.4,-308.6 -48.5,-77.2 -22.9,-111 10.5,-130.1"
             style="fill:none;stroke:#d65a50;stroke-width:44.1415;stroke-linecap:round;stroke-linejoin:round;stroke-miterlimit:10;stroke-dasharray:none;stroke-opacity:1"
             id="path184" />
          <path
             d="m 20513.6,17028.3 c -43.4,12.4 -88.6,-18.9 -101,-69.9 -12.4,-51 12.7,-102.4 56.1,-114.8 43.4,-12.4 88.6,18.9 101,69.9 12.4,51 -12.7,102.4 -56.1,114.8"
             style="fill:#d65a50;fill-opacity:1;fill-rule:nonzero;stroke:none"
             id="path186" />
          <path
             d="m 20148.9,16987.4 c 12.4,51 -12.8,102.4 -56.2,114.8 -15.3,4.4 -30.8,3 -45.1,-2.4 -8.4,-57.5 -15.7,-114.7 -21.7,-171.1 6.7,-4.8 13.9,-8.8 22,-11.2 43.4,-12.4 88.6,18.9 101,69.9"
             style="fill:#d65a50;fill-opacity:1;fill-rule:nonzero;stroke:none"
             id="path188" />
          <path
             d="m 20972.1,16893.1 c -5.7,394.6 -589.2,562.3 -657.5,1007.3 -40.2,-85.6 -227.1,-548.1 -259.2,-617 16.3,167 126.3,625.8 178.4,716.5 320.7,235.7 1634.1,155.4 738.3,-1106.8"
             style="fill:#2a1b38;fill-opacity:1;fill-rule:nonzero;stroke:none"
             id="path190" />
          <path
             d="m 20983.4,17114.8 c 57.9,88.6 130.6,86.6 161.9,64.6 24,-17 33.2,-50.6 34.1,-82.3 2.2,-73.5 -33.4,-148.7 -90.5,-191.4 -57.1,-42.8 -117.6,-50 -178.7,-20.8 0,0 -4.2,111.7 73.2,229.9"
             style="fill:#f3b190;fill-opacity:1;fill-rule:nonzero;stroke:none"
             id="path192" />
          <path
             d="m 21000.1,16977.6 c 4.4,47.7 19.5,91 50.1,124.4 13.2,14.5 29.9,25.8 48.2,32.8"
             style="fill:none;stroke:#d65a50;stroke-width:44.1415;stroke-linecap:round;stroke-linejoin:round;stroke-miterlimit:10;stroke-dasharray:none;stroke-opacity:1"
             id="path194" />
          <path
             d="m 20314.6,17900.4 c 8.7,-309.1 306.9,-608.8 590.5,-753"
             style="fill:none;stroke:#2a1b38;stroke-width:42.0877;stroke-linecap:round;stroke-linejoin:round;stroke-miterlimit:10;stroke-dasharray:none;stroke-opacity:1"
             id="path196" />
          <path
             d="m 19110.9,14837.1 -739.1,-1747.2 251.9,-939.8 c 511,113.8 1003.5,1241.7 1460.7,1986.1 l -973.5,700.9"
             style="fill:#e6906f;fill-opacity:1;fill-rule:nonzero;stroke:none"
             id="path198" />
          <path
             d="m 17299.9,14216.7 c 0,0 -518.6,549.1 -674.9,521 -156.2,-28.1 -202.1,-150.3 -365.6,-220.8 -53.6,-23.1 -266.3,-95.1 -266.3,-95.1 l -104.9,-388 c 0,0 386.1,-144.9 498.6,-123.5 112.4,21.3 391.5,110.7 391.5,110.7 l 132.4,-177.7 389.2,373.4"
             style="fill:#f3b190;fill-opacity:1;fill-rule:nonzero;stroke:none"
             id="path200" />
          <path
             d="m 16183.9,14449.1 c 195.3,-85 419.6,-101.4 625.1,-45.5"
             style="fill:none;stroke:#d65a50;stroke-width:44.1415;stroke-linecap:round;stroke-linejoin:round;stroke-miterlimit:10;stroke-dasharray:none;stroke-opacity:1"
             id="path202" />
          <path
             d="m 16712.2,14716.4 c 0,0 -246.4,158.2 -453.4,196.2 -57.2,10.6 -332.4,-7.3 -338.4,8.6 0,0 -14.1,-77.9 68.9,-120.3 83.1,-42.4 225.3,-34.9 225.3,-34.9 l 284.6,-256.5 213,206.9"
             style="fill:#f3b190;fill-opacity:1;fill-rule:nonzero;stroke:none"
             id="path204" />
          <path
             d="m 17299.9,14216.7 c 347.5,-301.8 976.4,-765.9 1230,-1011.8 253.5,-245.9 370.5,-1136.7 -2.8,-1053.8 -443.8,98.5 -1616.4,1692.2 -1616.4,1692.2 l 389.2,373.4"
             style="fill:#f3b190;fill-opacity:1;fill-rule:nonzero;stroke:none"
             id="path206" />
          <path
             d="m 15993.1,14421.8 c -94.3,-11.7 -214.9,-5.5 -272.1,16.8 -57.3,22.2 -129.2,135.7 -175,159.3 -37.2,19.1 -70.4,-5.9 -70.4,-5.9 19.4,-46.8 117.4,-226.2 182,-276.9 62.1,-48.7 360.3,-50.5 360.3,-50.5 l -24.8,157.2"
             style="fill:#f3b190;fill-opacity:1;fill-rule:nonzero;stroke:none"
             id="path208" />
          <path
             d="m 16001.8,14269.6 c 0,0 -253.4,15.5 -313,30.1 -59.7,14.7 -212.1,114.7 -261.4,129.8 -42.5,13.1 -71.6,-25.8 -71.6,-25.8 52.9,-52.7 176.8,-164.8 247.4,-206.7 67.9,-40.3 385.5,-47.6 385.5,-47.6 l 13.1,120.2"
             style="fill:#f3b190;fill-opacity:1;fill-rule:nonzero;stroke:none"
             id="path210" />
          <path
             d="m 16098.3,14214.7 c 0,0 -253.6,-13 -314.5,-5.1 -61,7.9 -223.6,90.2 -274.3,99.8 -43.7,8.2 -68.3,-33.7 -68.3,-33.7 58.6,-46.4 194.2,-144 269,-177.7 72,-32.5 406.9,-54.6 406.9,-54.6 l -18.8,171.3"
             style="fill:#f3b190;fill-opacity:1;fill-rule:nonzero;stroke:none"
             id="path212" />
          <path
             d="m 16369.8,14041.6 c 0,0 -242.3,-47.7 -303.2,-39.5 -60.9,8.2 -229.6,111.5 -280,121.9 -68.4,14 -103.5,-31 -103.5,-31 58.4,-46.7 249.2,-177.9 323.9,-212 71.8,-32.8 390.1,31.3 390.1,31.3 l -27.3,129.3"
             style="fill:#f3b190;fill-opacity:1;fill-rule:nonzero;stroke:none"
             id="path214" />
          <path
             d="m 18110.9,13601.2 -546.6,-1053.7 c 0,0 515.3,-398 764.4,-523.5 120.1,-60.5 383.6,-266.9 638.4,45 486.3,595.6 1140.4,1858 1140.4,1858 l -589.6,1264.2 c -536.7,-146.9 -838.6,-1062.7 -1063.1,-1792.3 l -343.9,202.3"
             style="fill:#fffbf5;fill-opacity:1;fill-rule:nonzero;stroke:none"
             id="path216" />
          <path
             d="m 18750.8,13732.8 c 18.4,225.1 202.6,755.1 360.1,1104.3 82.4,182.5 244.8,316.1 439.5,362.9 650,156.2 1473.7,298.5 1961.2,319.9 204.5,9 591.9,-235 503.1,-670.4 -19.7,-96.5 -524.3,-3047.2 -95.6,-4438.3 l -3238.2,-299.6 c 53.3,118.1 236.8,1322.8 226.6,1722.7 -24.8,967.9 -178.5,1631.9 -156.7,1898.5"
             style="fill:#fffbf5;fill-opacity:1;fill-rule:nonzero;stroke:none"
             id="path218" />
          <path
             d="m 19615.6,13979.8 c 0,0 -162.9,147.3 -224.4,243.6 -61.6,96.4 -117.2,398.4 -117.2,398.4 l 396.1,13.8 -54.5,-655.8"
             style="fill:#e6906f;fill-opacity:1;fill-rule:nonzero;stroke:none"
             id="path220" />
          <path
             d="m 19960.5,14623.3 c 0,0 -16.6,177.1 -31.4,210.2 -44.9,100.5 -317.6,295.3 -426.8,333.2 -108,37.5 -504,45.3 -565.6,58.6 0,0 -17.3,-63.4 52.5,-93.2 55.9,-23.8 426.3,-95.1 447.7,-108.5 21.3,-13.3 523.6,-400.3 523.6,-400.3"
             style="fill:#f3b190;fill-opacity:1;fill-rule:nonzero;stroke:none"
             id="path222" />
          <path
             d="m 19207.6,14908.7 c -151.9,103.9 -285.7,203.4 -379.3,280.3 -93.5,76.9 -203.9,170.1 -194.8,183.4 9.1,13.4 136,-55.8 241.5,-115.2 105.5,-59.4 246.7,-148.1 398.6,-252 151.9,-104 285.7,-203.5 379.2,-280.4 93.6,-76.8 79.3,-84.7 70.2,-98.1 -9.2,-13.3 -11.4,-29.5 -116.9,29.9 -105.5,59.4 -246.7,148.1 -398.5,252.1"
             style="fill:#e64c4c;fill-opacity:1;fill-rule:nonzero;stroke:none"
             id="path224" />
          <path
             d="m 19894.8,14554.7 c 0,0 -26.1,183.2 -54.8,205.4 -28.6,22.3 -333,259.3 -445.6,285.4 -108.4,25.2 -513.5,-11.7 -584.3,-6.8 0,0 -0.6,-78.6 70.3,-92.1 77.9,-14.8 456.3,-58.7 479.1,-69.6 22.7,-10.9 535.3,-322.3 535.3,-322.3"
             style="fill:#f3b190;fill-opacity:1;fill-rule:nonzero;stroke:none"
             id="path226" />
          <path
             d="m 19844.1,14364.4 c 0,0 56.6,192.3 28,214.5 -28.7,22.3 -399.8,265.1 -512.6,290.6 -109.5,24.7 -408.1,-14.7 -517.4,-12 0,0 -8.6,-82.9 68.2,-91.9 56,-6.5 437,-57.2 459.8,-68.2 22.7,-10.9 474,-333 474,-333"
             style="fill:#f3b190;fill-opacity:1;fill-rule:nonzero;stroke:none"
             id="path228" />
          <path
             d="m 19556.5,14094.3 c 0,0 252.9,381.5 225.4,394.6 -27.4,13 -338.1,202 -435,204.3 -94.5,2.2 -296,-67.8 -385.2,-78.9 0,0 -3.2,-60.8 57.2,-67.8 34.6,-4 306.3,-7.8 326.9,-12.5 28.1,-6.4 131.8,-84.4 141.1,-148.7 19.9,-137.3 69.6,-291 69.6,-291"
             style="fill:#f3b190;fill-opacity:1;fill-rule:nonzero;stroke:none"
             id="path230" />
          <path
             d="m 19929.1,14833.5 c 43.7,-98.5 145.2,-747.4 162.2,-796.4 20.7,-59.2 195.6,-173.9 195.6,-173.9 l -296,-403.7 c 0,0 -318,274.5 -389.9,352.2 -106.3,115 -121,722.2 -121,722.2 -18,51 -166.4,281.1 -166.4,281.1 0,0 565.5,111.6 615.5,18.5"
             style="fill:#f3b190;fill-opacity:1;fill-rule:nonzero;stroke:none"
             id="path232" />
          <path
             d="m 20286.9,13863.2 c 0,0 1305.8,-952.2 1497,-1143.3 267.3,-267.1 289.1,-1282.6 -199.6,-1099.7 -384.8,143.9 -1483.9,1745 -1593.4,1839.3 l 296,403.7"
             style="fill:#f3b190;fill-opacity:1;fill-rule:nonzero;stroke:none"
             id="path234" />
          <path
             d="m 22706.2,14659.9 c 258.4,-1145.1 120.1,-3384.8 -467.2,-3449.5 -544.7,-60 -1537.1,913.2 -1537.1,913.2 l 582.8,970.5 c 0,0 159.1,2011.7 226.9,2425.8 413.1,26.8 1042.6,-186.8 1194.6,-860"
             style="fill:#fffbf5;fill-opacity:1;fill-rule:nonzero;stroke:none"
             id="path236" />
          <path
             d="m 19178.9,14057.3 c -94.6,-265.7 -85.4,-566.8 25.1,-826.2"
             style="fill:none;stroke:#2a1b38;stroke-width:44.1415;stroke-linecap:round;stroke-linejoin:round;stroke-miterlimit:10;stroke-dasharray:none;stroke-opacity:1"
             id="path238" />
          <path
             d="m 20242.2,16625 c 78.5,-12.1 175.1,29.8 228.6,121"
             style="fill:none;stroke:#d65a50;stroke-width:44.1415;stroke-linecap:round;stroke-linejoin:round;stroke-miterlimit:10;stroke-dasharray:none;stroke-opacity:1"
             id="path240" />
          <path
             d="m 21143.5,15489.1 c 0,0 -830.1,-1040.1 -1254.6,-212.3 329.9,73 884.3,176.3 1254.6,212.3"
             style="fill:#f3b190;fill-opacity:1;fill-rule:nonzero;stroke:none"
             id="path242" />
        </g>
      </g>
      <path
         d="M 22383.9,10612 H 16968.4"
         style="fill:none;stroke:#2a1b38;stroke-width:56;stroke-linecap:round;stroke-linejoin:round;stroke-miterlimit:10;stroke-dasharray:none;stroke-opacity:1"
         id="path244" />
      <path
         d="m 24565.4,10612 h -1809"
         style="fill:none;stroke:#e64c4c;stroke-width:56;stroke-linecap:round;stroke-linejoin:round;stroke-miterlimit:10;stroke-dasharray:none;stroke-opacity:1"
         id="path246" />
      <g
         id="g248">
        <g
           id="g250"
           clip-path="url(#clipPath254)">
          <path
             d="m 18898.6,9690.8 -225.3,-2094.6 -651,37.4 249.2,2134 627.1,-76.8"
             style="fill:#f3b190;fill-opacity:1;fill-rule:nonzero;stroke:none"
             id="path256" />
          <path
             d="m 18271.5,9767.6 627.1,-76.8 c 0,0 -172.1,-716.8 -245,-932.8 -80.2,-237.6 -94,-569.8 -570.8,-606.5 l 188.7,1616.1"
             style="fill:#d65a50;fill-opacity:1;fill-rule:nonzero;stroke:none"
             id="path258" />
          <path
             d="m 17967.3,10890.5 c 233.5,220.5 787.5,165.4 968.8,-158.8 99.9,-507.9 -68.3,-1619.4 -289.1,-1909.1 -223.9,-293.9 -840.4,-404 -967.5,-41.6 -114.5,326.2 78.4,1751.8 287.8,2109.5"
             style="fill:#f3b190;fill-opacity:1;fill-rule:nonzero;stroke:none"
             id="path260" />
          <path
             d="m 18451.9,10010.1 -288.4,17.1 c 0,0 8.4,109.9 112.5,90 104.1,-20 175.9,-107.1 175.9,-107.1"
             style="fill:#2a1b38;fill-opacity:1;fill-rule:nonzero;stroke:none"
             id="path262" />
          <path
             d="m 17715.8,10108.1 223,-45.7 c 0,0 18.9,96.9 -86.7,107 -93.2,8.9 -136.3,-61.3 -136.3,-61.3"
             style="fill:#2a1b38;fill-opacity:1;fill-rule:nonzero;stroke:none"
             id="path264" />
          <path
             d="m 18274.4,9896.8 c -4.3,-27.9 -25.9,-47.8 -48.1,-44.3 -22.2,3.4 -36.7,28.9 -32.3,56.9 4.3,27.9 25.9,47.8 48.1,44.3 22.2,-3.5 36.7,-28.9 32.3,-56.9"
             style="fill:#2a1b38;fill-opacity:1;fill-rule:nonzero;stroke:none"
             id="path266" />
          <path
             d="m 17836.2,9946.8 c -4.4,-27.9 -25.9,-47.8 -48.1,-44.3 -22.3,3.5 -36.7,28.9 -32.4,56.9 4.4,28 25.9,47.8 48.2,44.3 22.2,-3.4 36.7,-28.9 32.3,-56.9"
             style="fill:#2a1b38;fill-opacity:1;fill-rule:nonzero;stroke:none"
             id="path268" />
          <path
             d="m 17815.3,10444.9 c 42.3,151.9 70.3,229.9 70.3,229.9 0,0 85.3,-103.7 190.9,-123.9 174,-33.2 575.1,-0.3 651.8,-14.3 94.5,-17.1 -16.8,-282.6 1.4,-406.2 5.9,-40.2 128,-149.7 146.3,-243.9 42.2,-217 8.8,-318.6 0.9,-397.6 96.5,220.6 385.3,1011.3 291.1,1264 -94.2,252.6 -811.6,460.2 -1058.5,500.6 23.7,-103.4 -223.9,-310.8 -296.3,-392.6 -76.2,-86.1 -15.4,-373.1 2.1,-416"
             style="fill:#fffbf5;fill-opacity:1;fill-rule:nonzero;stroke:none"
             id="path270" />
          <path
             d="m 18043.1,10014.7 c 9.3,-77.7 0.4,-126.1 -20.9,-181.2 -20.4,-52.6 -51.2,-99.7 -68.1,-153.9 -16.9,-54.1 -14.6,-122.8 23.8,-155.8"
             style="fill:none;stroke:#d65a50;stroke-width:54.0896;stroke-linecap:round;stroke-linejoin:round;stroke-miterlimit:10;stroke-dasharray:none;stroke-opacity:1"
             id="path272" />
          <path
             d="m 18777.5,9748.9 c 32.6,97.6 96.1,164.3 178.5,178.2 43,7.3 97.3,2.5 133.6,-21.7 51.1,-34 68.8,-103.8 57.2,-164.1 -17.4,-90.3 -85.9,-169.8 -171.3,-203.7 -194.1,-76.9 -232.9,106.6 -198,211.3"
             style="fill:#f3b190;fill-opacity:1;fill-rule:nonzero;stroke:none"
             id="path274" />
          <path
             d="m 18826,9617 c 5.3,95.7 37.7,230.4 180.6,243.5"
             style="fill:none;stroke:#d65a50;stroke-width:54.0896;stroke-linecap:round;stroke-linejoin:round;stroke-miterlimit:10;stroke-dasharray:none;stroke-opacity:1"
             id="path276" />
          <path
             d="m 17647.2,9394.6 c 101.3,101.5 247.4,121.8 426.9,84 181,-30.4 356.8,-135.6 496.2,-251.5 29.1,109.2 197.1,606.7 197.1,606.7 0,0 19,-377.3 -10.3,-697.7 -26.8,-292.5 -81.6,-621.9 -124.4,-661.1 -267.3,-244.6 -991.9,-119.6 -1161.5,136 -75.7,114 132.7,740.1 176,783.6"
             style="fill:#fffbf5;fill-opacity:1;fill-rule:nonzero;stroke:none"
             id="path278" />
          <path
             d="m 18190,9293.6 c -80.8,-64.6 -189.7,-92.7 -291.6,-75.2"
             style="fill:none;stroke:#d65a50;stroke-width:54.0896;stroke-linecap:round;stroke-linejoin:round;stroke-miterlimit:10;stroke-dasharray:none;stroke-opacity:1"
             id="path280" />
          <path
             d="m 17682,9944.5 c -2.8,-80.8 54.3,-148.4 127.5,-150.8 73.2,-2.5 134.7,61 137.4,141.9 2.7,80.8 -54.4,148.3 -127.5,150.8 -73.2,2.5 -134.7,-61.1 -137.4,-141.9 z"
             style="fill:none;stroke:#d65a50;stroke-width:43.8168;stroke-linecap:round;stroke-linejoin:round;stroke-miterlimit:10;stroke-dasharray:none;stroke-opacity:1"
             id="path282" />
          <path
             d="m 18116.5,9953.2 c -34.3,-72.9 -7.2,-159.9 60.4,-194.4 67.7,-34.5 150.3,-3.3 184.6,69.7 34.3,72.9 7.3,159.9 -60.4,194.4 -67.7,34.4 -150.3,3.2 -184.6,-69.7 z"
             style="fill:none;stroke:#d65a50;stroke-width:40.2482;stroke-linecap:round;stroke-linejoin:round;stroke-miterlimit:10;stroke-dasharray:none;stroke-opacity:1"
             id="path284" />
          <path
             d="m 18376,9924.5 491.4,-8.8"
             style="fill:none;stroke:#d65a50;stroke-width:41.6255;stroke-linecap:round;stroke-linejoin:round;stroke-miterlimit:10;stroke-dasharray:none;stroke-opacity:1"
             id="path286" />
          <path
             d="m 16216.5,4671.2 c -101.2,-392.2 -170.3,-896.7 -312.9,-1876.7 l -1119.3,396.8 c 27.3,452 55.2,858.1 107,1325.8 l 1325.2,154.1"
             style="fill:#e6906f;fill-opacity:1;fill-rule:nonzero;stroke:none"
             id="path288" />
          <path
             d="m 20522,1261.9 c 6.8,1622 127,2918.1 279,5736.6 21.3,394.7 -440.5,790.8 -835.2,818.9 -214.3,15.3 -319.5,15.4 -597.1,21 -1215,24.9 -2126.1,-90.9 -2504.6,-207.8 -401.8,-124 -465.8,-726.6 -513.3,-1244.9 -147.3,-1608.8 -158.2,-3113.6 -283.8,-5117.1 l 4455,-6.7"
             style="fill:#2a1b38;fill-opacity:1;fill-rule:nonzero;stroke:none"
             id="path290" />
          <path
             d="m 15903.6,2842.4 c 2.9,-624.3 -450.7,-2178.599 -498,-2627.4 l -677.9,-71.801 c -33.1,460.801 18.2,2566.301 56.6,3048.101 64.8,811.8 1116.1,363.8 1119.3,-348.9"
             style="fill:#f3b190;fill-opacity:1;fill-rule:nonzero;stroke:none"
             id="path292" />
          <path
             d="M 17422.4,7743.4 C 16027.5,7579 15449.9,7185.1 15207.8,6337.2 c -141,-493.9 -201.9,-881.9 -316.5,-1820.1 911.3,-30.4 1983.6,-126.4 1983.6,-126.4 l 547.5,3352.7"
             style="fill:#2a1b38;fill-opacity:1;fill-rule:nonzero;stroke:none"
             id="path294" />
          <path
             d="m 21557.1,3191.3 c 0,0 -223,485.7 -626.5,1394.6 l 1446.8,181.7 c 248.4,-764.9 434.5,-1245.9 415.4,-1445.5 l -1235.7,-130.8"
             style="fill:#e6906f;fill-opacity:1;fill-rule:nonzero;stroke:none"
             id="path296" />
          <path
             d="m 20929.7,577.5 c 0,0 1598.4,1935.4 1777.1,2385.2 110.5,278.3 138.1,480.7 -59,638.1 -205.3,164.1 -846.8,155.8 -1104.5,-312.9 -537.4,-977.2 -784.7,-1686.1 -1080.3,-2131.7 l 466.7,-578.7"
             style="fill:#f3b190;fill-opacity:1;fill-rule:nonzero;stroke:none"
             id="path298" />
          <path
             d="m 19258.5,7840.3 c -303.2,-279.9 -720.5,-647.6 -919.1,-827.9 -62.6,-56.8 -159.7,-49.8 -213.4,15.5 -148.1,180.2 -421.1,519.9 -617.2,727.2 446.5,75 1182.5,102.5 1749.7,85.2"
             style="fill:#f3b190;fill-opacity:1;fill-rule:nonzero;stroke:none"
             id="path300" />
          <path
             d="m 19965.8,7817.4 c 463,-22.9 1225.9,-305.5 1604.6,-1041.3 273.7,-531.7 807,-2008.5 807,-2008.5 l -1575.7,-592 -1140.1,2593.9 c 0,0 159.7,508.8 304.2,1047.9"
             style="fill:#2a1b38;fill-opacity:1;fill-rule:nonzero;stroke:none"
             id="path302" />
        </g>
      </g>
      <path
         d="m 14274.8,1946.4 h 9171.5"
         style="fill:none;stroke:#2a1b38;stroke-width:56;stroke-linecap:round;stroke-linejoin:round;stroke-miterlimit:10;stroke-dasharray:none;stroke-opacity:1"
         id="path304" />
      <path
         d="m 10212.9,1946.4 h 4061.9"
         style="fill:none;stroke:#e64c4c;stroke-width:56;stroke-linecap:round;stroke-linejoin:round;stroke-miterlimit:10;stroke-dasharray:none;stroke-opacity:1"
         id="path306" />
    </g>
  </g>
</svg>
