<svg width="640" height="179" viewBox="0 0 640 179" fill="none" xmlns="http://www.w3.org/2000/svg">
<path d="M125.437 170.423C99.2942 181.428 73.4368 180.994 48.8015 168.19C21.7083 154.109 5.07855 131.268 1.39331 100.677C-2.98151 64.3612 10.7114 35.3435 40.7218 14.6273C71.1145 -6.35296 114.613 -4.38299 143.626 18.4851C166.416 36.4485 178.608 60.1685 178.212 88.9696C177.696 126.472 159.653 153.739 125.437 170.423ZM69.0941 131.565C59.2627 126.497 52.3294 118.754 49.6642 108.054C47.9591 101.209 46.9736 93.9739 47.0606 86.931C47.3707 61.8339 61.865 45.4586 86.6873 42.5156C99.7584 40.9658 112.427 43.135 122.432 52.8339C132.896 62.9791 136.273 92.3153 128.095 104.411C126.497 106.775 122.364 108.542 119.383 108.567C115.806 108.597 114.034 105.174 113.95 101.392C113.718 90.9124 113.356 80.4345 113.211 69.9533C113.086 60.9316 113.187 60.9302 104.491 58.2919C87.2647 53.0654 72.6781 57.8931 66.1962 72.298C61.1327 83.5508 60.8403 95.6824 65.7603 107.261C69.532 116.137 76.8336 120.238 86.509 119.877C94.5504 119.577 99.8699 114.921 103.991 108.305C112.298 126.428 133.198 121.649 140.393 109.725C142.847 105.659 145.007 101.17 146.126 96.5876C150.8 77.4591 148.225 59.7452 133.781 45.2498C115.486 26.8898 80.3873 24.0018 57.8316 38.8479C36.2896 53.0267 29.1066 73.8123 31.5842 98.4772C33.1775 114.339 39.6846 127.943 52.9898 137.517C70.4642 150.092 90.0254 151.559 110.235 147.055C122.566 144.307 122.387 146.7 117.38 133.263C117.28 132.995 116.898 132.832 116.31 132.333C100.953 136.745 85.2955 138.78 69.0941 131.565Z" fill="#F78F67"/>
<path d="M230.156 102.047C225.416 80.0393 220.756 58.4459 215.985 36.3352C224.989 36.3352 233.464 36.1872 241.919 36.514C243.032 36.557 244.682 38.8864 245.018 40.3941C249.792 61.8339 254.38 83.3153 259.024 104.784C259.409 106.565 259.878 108.328 261.397 110.295C266.7 85.8046 272.003 61.3143 277.412 36.3303C288.322 36.3303 299.114 36.2119 309.894 36.5139C310.97 36.544 312.576 38.9972 312.922 40.5515C317.954 63.1286 322.813 85.7443 327.717 108.35C327.89 109.15 328.095 109.944 329.121 110.858C334.522 86.1283 339.923 61.3985 345.354 36.5354C354.651 36.5354 363.601 36.5354 373.443 36.5354C365.456 73.5187 357.506 110.332 349.474 147.523C335.719 147.523 321.988 147.523 307.906 147.523C303.731 128.195 299.525 108.725 295.32 89.2547C294.946 89.2285 294.573 89.2022 294.2 89.176C290 108.606 285.8 128.036 281.558 147.656C267.744 147.656 254.122 147.656 240.1 147.656C236.822 132.637 233.529 117.549 230.156 102.047Z" fill="#33636D"/>
<path d="M527.248 129.177C519.769 141.75 507.956 147.24 494.73 148.568C483.603 149.684 472.115 149.154 460.982 147.774C446.102 145.93 437.509 136.25 434.167 121.871C433.232 117.845 432.761 113.712 432.004 109.192C442.454 109.192 452.499 109.192 462.886 109.192C463 109.51 463.265 110.083 463.412 110.684C467.452 127.253 486.486 133.335 499.885 122.333C504.443 118.591 504.946 113.539 500.24 110.178C496.413 107.445 491.824 105.478 487.291 104.094C477.435 101.086 467.273 99.0624 457.471 95.9059C445.681 92.109 436.821 84.8802 434.881 71.7905C432.639 56.6578 441.049 43.2338 456.317 38.1798C471.535 33.1424 487.171 32.8802 502.604 37.1411C516.635 41.0152 525.406 53.0692 525.603 67.9577C515.738 68.6086 505.841 69.2616 496.025 69.9093C495.652 69.4768 495.341 69.2697 495.251 68.9915C491.383 56.9445 479.617 51.5334 467.996 56.8996C465.826 57.9021 463.362 60.7603 463.199 62.925C463.035 65.1104 465.048 68.7723 467.006 69.5648C473.581 72.2247 480.536 73.964 487.384 75.9207C494.257 77.8843 501.374 79.1568 508.038 81.6555C530.146 89.9455 537.149 107.359 527.248 129.177Z" fill="#33636D"/>
<path d="M575.327 77.6899C589.117 77.6899 602.907 77.6899 617.064 77.6899C617.064 84.1143 617.064 90.1624 617.064 96.7573C603.06 96.7573 589.163 96.7573 574.973 96.7573C574.973 107.686 574.973 118.075 574.973 128.891C596.446 128.891 617.674 128.891 639.055 128.891C639.055 135.404 639.055 141.489 639.055 147.631C608.416 147.631 578.017 147.631 547.13 147.631C547.13 120.428 547.13 93.5082 547.521 66.0403C549.891 66.2109 551.922 66.8126 553.839 67.6692C560.688 70.7303 567.498 73.878 574.323 76.9929C574.482 77.1136 574.641 77.2344 575.04 77.561C575.28 77.7669 575.327 77.6899 575.327 77.6899Z" fill="#33636D"/>
<path d="M404.983 147.899C399.51 147.899 394.532 147.899 389.277 147.899C389.277 110.979 389.277 73.8948 389.277 36.5625C398.178 36.5625 406.953 36.5625 416.209 36.5625C416.209 73.4473 416.209 110.317 416.209 147.898C412.657 147.898 409.067 147.898 404.983 147.899Z" fill="#33636D"/>
<path d="M639.318 49.8938C639.236 51.5292 639.155 53.1646 639.042 55.4179C617.92 55.4179 597.018 55.4179 575.19 55.3595C565.202 55.0371 556.138 54.773 547.074 54.509C547.074 48.7033 547.074 42.8976 547.074 36.5522C548.944 36.4665 550.542 36.3302 552.14 36.3294C579.393 36.3158 606.647 36.2814 633.9 36.4044C635.674 36.4124 637.443 37.6567 639.206 39.0363C639.244 40.7579 639.289 41.7691 639.334 42.7803C639.311 44.4628 639.288 46.1452 639.219 48.5374C639.127 49.4961 639.175 49.7116 639.318 49.8938Z" fill="#33636D"/>
<path d="M546.867 54.6805C556.138 54.7731 565.202 55.0371 574.738 55.3965C575.124 61.1833 575.048 66.8748 574.942 72.5657C574.918 73.8245 574.786 75.0812 574.513 76.6659C567.498 73.878 560.688 70.7303 553.839 67.6692C551.922 66.8126 549.891 66.2109 547.519 65.5466C546.971 62.0179 546.816 58.4349 546.867 54.6805Z" fill="#F78F67"/>
<path d="M639.459 42.6473C639.289 41.7692 639.244 40.7579 639.272 39.5444C639.424 40.3995 639.503 41.457 639.459 42.6473Z" fill="#F78F67"/>
<path d="M639.426 49.9337C639.175 49.7117 639.127 49.4961 639.245 49.1681C639.391 49.2523 639.487 49.4095 639.535 49.5804C639.568 49.702 639.537 49.8419 639.426 49.9337Z" fill="#F78F67"/>
<path d="M638.492 34.5079C638.493 34.5277 638.492 34.4881 638.492 34.5079Z" fill="#F78F67"/>
<path d="M575.359 77.6429C575.326 77.69 575.28 77.767 575.283 77.7349C575.286 77.7028 575.391 77.5958 575.359 77.6429Z" fill="#F78F67"/>
<path d="M69.4356 131.73C85.2956 138.78 100.953 136.746 116.31 132.333C116.898 132.832 117.28 132.995 117.38 133.263C122.387 146.7 122.566 144.307 110.236 147.055C90.0255 151.559 70.4643 150.092 52.9899 137.517C39.6847 127.943 33.1776 114.339 31.5843 98.4773C29.1067 73.8124 36.2897 53.0268 57.8317 38.848C80.3874 24.0019 115.486 26.8899 133.781 45.2499C148.225 59.7453 150.8 77.4592 146.127 96.5877C145.007 101.17 142.847 105.659 140.393 109.725C133.198 121.649 112.298 126.428 103.991 108.305C99.87 114.921 94.5504 119.577 86.5091 119.877C76.8337 120.238 69.532 116.137 65.7604 107.261C60.8404 95.6825 61.1328 83.5509 66.1963 72.2981C72.6782 57.8932 87.2648 53.0655 104.491 58.292C113.187 60.9303 113.086 60.9317 113.211 69.9534C113.356 80.4346 113.718 90.9125 113.95 101.393C114.034 105.174 115.806 108.598 119.383 108.567C122.364 108.542 126.497 106.775 128.095 104.411C136.273 92.3154 132.897 62.9792 122.432 52.834C112.427 43.1351 99.7584 40.9659 86.6874 42.5157C61.865 45.4587 47.3708 61.834 47.0607 86.9311C46.9737 93.974 47.9592 101.209 49.6642 108.054C52.3295 118.754 59.2628 126.497 69.4356 131.73ZM82.5832 107.024C90.6418 110.583 98.5715 106.381 98.8673 98.0723C99.1754 89.4194 99.0589 80.7457 98.8688 72.0867C98.8403 70.7865 97.5881 68.5998 96.577 68.39C91.8027 67.3996 86.5929 66.7079 83.2995 71.3447C81.1714 74.3409 79.3394 77.9913 78.7791 81.5687C77.4454 90.083 76.432 98.7975 82.5832 107.024Z" fill="#FDFAF5"/>
<path d="M82.293 106.773C76.4321 98.7975 77.4455 90.083 78.7791 81.5687C79.3395 77.9913 81.1714 74.3409 83.2996 71.3447C86.5929 66.7079 91.8028 67.3997 96.577 68.39C97.5882 68.5999 98.8403 70.7865 98.8689 72.0867C99.0589 80.7457 99.1754 89.4194 98.8674 98.0723C98.5715 106.381 90.6418 110.583 82.293 106.773Z" fill="#F78F67"/>
</svg>
