<svg width="83" height="72" viewBox="0 0 83 72" fill="none" xmlns="http://www.w3.org/2000/svg">
<path d="M60.9532 33.4579L69.3672 51.5806C68.3391 52.7846 67.2272 54.0046 66.0224 55.2393C65.8579 54.4259 65.3563 53.6419 64.4209 53.0526L63.436 52.4286L62.9002 52.0673L46.3183 40.9033C44.5428 41.9619 42.3262 42.1886 40.2959 41.4592L37.9502 45.1099C36.5615 47.2726 33.6423 47.8632 31.4308 46.4299L30.0866 45.5592C29.7439 45.3379 29.6407 44.8872 29.8563 44.5512L35.0335 36.4979C36.4022 34.2806 38.2683 32.3046 41.1631 31.1099H41.1658L41.1678 31.1072C42.4563 30.5779 43.9475 30.2046 45.6866 30.0246C48.6568 29.7286 52.5016 32.4566 55.9647 33.6539C57.5292 34.1952 59.0745 33.6859 60.3235 33.7499L60.9532 33.4579Z" fill="white"/>
<path d="M47.0428 65.6232C49.9329 67.7606 46.9573 72.3232 43.7715 70.3126L40.7297 68.4099L42.3849 65.8819C43.3939 64.3072 42.7521 62.6966 41.5699 61.7846L46.8152 65.4659C46.8959 65.5179 46.972 65.5686 47.0428 65.6232Z" fill="#FA8D62"/>
<path d="M40.7298 68.4099L40.0809 69.4019C37.6855 73.1366 32.347 69.7006 34.7397 65.9686L37.1298 62.3713L37.1517 62.3846C38.2002 60.7499 40.0022 60.7659 41.3054 61.5993C41.3246 61.6139 41.3445 61.6259 41.3615 61.6379L41.5449 61.7686C41.5522 61.7726 41.5601 61.7806 41.5699 61.7846C42.7522 62.6966 43.3939 64.3073 42.385 65.8819L40.7298 68.4099Z" fill="white"/>
<path d="M31.5439 58.338C33.8262 54.83 39.635 58.4846 37.3647 62.0153L37.1298 62.3713L34.7396 65.9686L34.0611 66.9993C31.5339 70.9246 25.9063 67.3779 28.2548 63.4553C28.2819 63.4139 28.3084 63.3699 28.3355 63.3259L31.5314 58.3539C31.5366 58.3499 31.5387 58.342 31.5439 58.338Z" fill="white"/>
<path d="M41.3054 61.5992C40.0022 60.7659 38.2002 60.7499 37.1517 62.3845L37.1298 62.3712L37.3647 62.0152C39.635 58.4845 33.8262 54.8299 31.5439 58.3379L31.8986 57.7832C34.2647 54.0912 28.4949 50.3779 26.1267 54.0712L25.0246 55.7872C27.2017 52.2592 21.5449 48.6565 19.2746 52.1832L17.5355 54.9872C17.3178 55.3272 17.1585 55.6632 17.0558 55.9939C15.1871 54.1272 13.5246 52.2899 12.0454 50.4899L12.0475 50.4885L21.0721 35.0325C21.7825 35.1405 22.5585 35.1752 23.3814 35.0845C26.6975 34.7245 34.3158 29.6352 41.1631 31.1099C38.2683 32.3045 36.4022 34.2805 35.0335 36.4979L29.8563 44.5512C29.6407 44.8872 29.7439 45.3379 30.0866 45.5592L31.4309 46.4299C33.6423 47.8632 36.5615 47.2725 37.9502 45.1099L40.2959 41.4592C42.3262 42.1885 44.5429 41.9619 46.3183 40.9032L62.9002 52.0672L63.4361 52.4285L64.421 53.0525C65.3563 53.6419 65.8579 54.4259 66.0225 55.2392C66.5486 57.8059 63.7497 60.6832 60.7986 58.8219L59.0991 57.7512C61.5407 60.3672 58.2689 64.9472 54.7767 62.7445L52.6585 61.2659C52.5751 61.2019 52.4871 61.1405 52.3939 61.0819L52.6585 61.2659C55.8669 63.6805 52.3741 69.0339 48.8038 66.7805L47.0429 65.6205V65.6232C46.9721 65.5685 46.8959 65.5179 46.8153 65.4659L41.5699 61.7845C41.5601 61.7805 41.5522 61.7726 41.5449 61.7685C41.4866 61.7219 41.4251 61.6806 41.3615 61.6379C41.3445 61.6259 41.3246 61.6139 41.3054 61.5992Z" fill="#FA8D62"/>
<path d="M25.0245 55.7872L26.1266 54.0712C28.4948 50.3779 34.2647 54.0912 31.8985 57.7832L31.5438 58.3379C31.5386 58.3419 31.5365 58.3499 31.5313 58.3539L28.3354 63.3259C28.3084 63.3699 28.2818 63.4139 28.2548 63.4552L28.0272 63.8085C25.3672 67.9539 19.598 64.2446 22.2573 60.0952L23.2026 58.6232L25.0245 55.7872Z" fill="white"/>
<path d="M19.2745 52.1832C21.5448 48.6566 27.2016 52.2592 25.0245 55.7872L23.2027 58.6232L23.1781 58.6059C22.6907 59.3686 22.0881 59.8499 21.4516 60.1072C19.0444 61.0805 16.1496 58.7926 17.0557 55.9939C17.1584 55.6632 17.3177 55.3272 17.5355 54.9872L19.2745 52.1832Z" fill="white"/>
<path d="M52.3891 61.0806L43.3303 54.7619" stroke="#2B616D" stroke-width="1.777" stroke-miterlimit="10" stroke-linecap="round" stroke-linejoin="round"/>
<path d="M59.0991 57.7511C61.5407 60.3671 58.2689 64.9471 54.7767 62.7445L52.6585 61.2658L52.3939 61.0818" stroke="#2B616D" stroke-width="1.777" stroke-miterlimit="10" stroke-linecap="round" stroke-linejoin="round"/>
<path d="M52.389 61.0805C52.3912 61.0805 52.3912 61.0819 52.3938 61.0819C52.487 61.1405 52.575 61.2019 52.6584 61.2659C55.8668 63.6805 52.374 69.0339 48.8037 66.7805" stroke="#2B616D" stroke-width="1.777" stroke-miterlimit="10" stroke-linecap="round" stroke-linejoin="round"/>
<path d="M41.5698 61.7846L46.8152 65.4659C46.8958 65.5179 46.972 65.5686 47.0428 65.6232C49.9329 67.7606 46.9573 72.3232 43.7714 70.3126L40.7297 68.4099L40.7272 68.4072" stroke="#2B616D" stroke-width="1.777" stroke-miterlimit="10" stroke-linecap="round" stroke-linejoin="round"/>
<path d="M41.3615 61.6379L41.5448 61.7686" stroke="#2B616D" stroke-width="1.777" stroke-miterlimit="10" stroke-linecap="round" stroke-linejoin="round"/>
<path d="M21.0693 35.0325H21.072C21.7824 35.1405 22.5584 35.1752 23.3813 35.0845C26.6975 34.7245 34.3157 29.6351 41.1631 31.1098" stroke="#2B616D" stroke-width="1.777" stroke-miterlimit="10" stroke-linecap="round" stroke-linejoin="round"/>
<path d="M31.5313 58.3539L28.3354 63.3259" stroke="#2B616D" stroke-width="1.777" stroke-miterlimit="10" stroke-linecap="round" stroke-linejoin="round"/>
<path d="M28.2548 63.4552L28.0272 63.8085C25.3672 67.9539 19.598 64.2446 22.2573 60.0952L23.2026 58.6232L25.0245 55.7872L26.1266 54.0712C28.4948 50.3779 34.2647 54.0912 31.8985 57.7832L31.5438 58.3379" stroke="#2B616D" stroke-width="1.777" stroke-miterlimit="10" stroke-linecap="round" stroke-linejoin="round"/>
<path d="M24.9881 55.8485C25.0001 55.8299 25.0147 55.8072 25.0245 55.7872C27.2016 52.2592 21.5448 48.6566 19.2745 52.1832L17.5355 54.9872C17.3177 55.3272 17.1584 55.6632 17.0557 55.9939C16.1496 58.7926 19.0444 61.0805 21.4516 60.1072C22.0881 59.8499 22.6907 59.3686 23.1781 58.6059" stroke="#2B616D" stroke-width="1.777" stroke-miterlimit="10" stroke-linecap="round" stroke-linejoin="round"/>
<path d="M31.5314 58.3539C31.5366 58.3499 31.5387 58.342 31.5439 58.338C33.8262 54.83 39.635 58.4846 37.3647 62.0153L37.1298 62.3713L34.7396 65.9686L34.0611 66.9993C31.5339 70.9246 25.9063 67.3779 28.2548 63.4553C28.2819 63.4139 28.3084 63.3699 28.3355 63.3259" stroke="#2B616D" stroke-width="1.777" stroke-miterlimit="10" stroke-linecap="round" stroke-linejoin="round"/>
<path d="M37.1517 62.3846C38.2002 60.7499 40.0022 60.7659 41.3054 61.5993C41.3246 61.6139 41.3445 61.6259 41.3615 61.6379C41.4251 61.6806 41.4866 61.7219 41.5449 61.7686C41.5522 61.7726 41.5601 61.7806 41.5699 61.7846C42.7522 62.6966 43.3939 64.3073 42.385 65.8819L40.7298 68.4099L40.0809 69.4019C37.6855 73.1366 32.347 69.7006 34.7397 65.9686" stroke="#2B616D" stroke-width="1.777" stroke-miterlimit="10" stroke-linecap="round" stroke-linejoin="round"/>
<path d="M46.3182 40.9032L62.9001 52.0672L63.436 52.4285L64.4209 53.0525C65.3562 53.6419 65.8578 54.4259 66.0224 55.2392C66.5485 57.8059 63.7496 60.6832 60.7985 58.8219L59.099 57.7512L59.087 57.7445L47.9761 50.0845" stroke="#2B616D" stroke-width="1.777" stroke-miterlimit="10" stroke-linecap="round" stroke-linejoin="round"/>
<path d="M60.3234 33.7499C59.0745 33.6859 57.5292 34.1952 55.9646 33.6539C52.5016 32.4566 48.6568 29.7286 45.6865 30.0246C43.9474 30.2046 42.4562 30.5779 41.1677 31.1072L41.1657 31.1099H41.163C38.2682 32.3046 36.4021 34.2806 35.0334 36.4979" stroke="#2B616D" stroke-width="1.777" stroke-miterlimit="10" stroke-linecap="round" stroke-linejoin="round"/>
<path d="M48.8038 66.7805L47.0428 65.6205" stroke="#2B616D" stroke-width="1.777" stroke-miterlimit="10" stroke-linecap="round" stroke-linejoin="round"/>
<path d="M40.2959 41.4592L37.9502 45.1099C36.5615 47.2725 33.6423 47.8632 31.4308 46.4299L30.0866 45.5592C29.7439 45.3379 29.6407 44.8872 29.8563 44.5512L35.0335 36.4979" stroke="#2B616D" stroke-width="1.777" stroke-miterlimit="10" stroke-linecap="round" stroke-linejoin="round"/>
<path d="M40.2959 41.4592C42.3262 42.1885 44.5428 41.9619 46.3183 40.9032" stroke="#2B616D" stroke-width="1.777" stroke-miterlimit="10" stroke-linecap="round" stroke-linejoin="round"/>
<path d="M9.98816 25.0392L21.0158 29.7778C21.6475 30.0498 22.135 30.5805 22.348 31.2379C22.5631 31.8912 22.4876 32.6085 22.1396 33.2059L21.072 35.0325L12.0475 50.4885" stroke="#2B616D" stroke-width="1.777" stroke-miterlimit="10" stroke-linecap="round" stroke-linejoin="round"/>
<path d="M69.3673 51.5806L60.9533 33.4579L60.6418 32.7872C60.3699 32.1992 60.3434 31.5259 60.5735 30.9192C60.8011 30.3112 61.2663 29.8219 61.859 29.5646L72.2257 25.0393" stroke="#2B616D" stroke-width="1.777" stroke-miterlimit="10" stroke-linecap="round" stroke-linejoin="round"/>
<path d="M17.0558 55.9939C15.1871 54.1272 13.5246 52.2899 12.0454 50.4899C10.1522 48.1832 8.56055 45.9352 7.22815 43.7606C1.61775 34.5926 0.618282 26.6805 1.11055 20.9072C1.17922 17.3499 2.15628 14.0112 3.80948 11.1259C3.90015 10.9579 3.96362 10.8472 3.99335 10.8059C3.99335 10.8059 3.99335 10.7979 3.99802 10.7979C4.00535 10.7939 4.00535 10.7939 4.00535 10.7939C7.47295 5.02057 13.7006 1.14455 20.8344 1.04722C20.8344 1.04722 20.9005 1.04722 20.9376 1.04722C20.9959 1.04722 21.0548 1.03924 21.1163 1.03924C31.2177 0.705911 38.1267 8.13658 39.8261 9.83791L41.1505 11.1659L42.4756 9.83524C44.1751 8.13124 51.0715 0.691216 61.1735 1.00988C61.2344 1.00988 61.2933 1.01656 61.3521 1.01656C61.3912 1.01656 61.4573 1.01656 61.4573 1.01656C68.5887 1.10856 74.8235 4.97524 78.2985 10.7392C78.2985 10.7392 78.2985 10.7392 78.3063 10.7446C78.3111 10.7446 78.3111 10.7512 78.3111 10.7512C78.3381 10.7952 78.4043 10.9032 78.4948 11.0752C80.1527 13.9579 81.1371 17.2926 81.2105 20.8512C81.7245 26.8046 80.6595 35.0299 74.586 44.5686C73.2027 46.7512 71.5516 49.0019 69.6001 51.3085C69.524 51.3992 69.4459 51.4899 69.3672 51.5806C68.3391 52.7846 67.2272 54.0046 66.0224 55.2392" stroke="#2B616D" stroke-width="1.777" stroke-miterlimit="10" stroke-linecap="round" stroke-linejoin="round"/>
<path d="M41.1677 16.3552V24.4779" stroke="#FA8D62" stroke-width="1.777" stroke-miterlimit="10" stroke-linecap="round" stroke-linejoin="round"/>
<path d="M32.5382 19.0392L35.0751 25.4165" stroke="#FA8D62" stroke-width="1.777" stroke-miterlimit="10" stroke-linecap="round" stroke-linejoin="round"/>
<path d="M49.7954 19.0392L47.2584 25.4165" stroke="#FA8D62" stroke-width="1.777" stroke-miterlimit="10" stroke-linecap="round" stroke-linejoin="round"/>
</svg>
