<svg width="61" height="78" viewBox="0 0 61 78" fill="none" xmlns="http://www.w3.org/2000/svg">
<path d="M6.368 0.999968H59.356C57.872 0.999968 56.7333 1.5173 55.9613 2.3493C55.192 3.18263 54.7933 4.33598 54.7933 5.60931C54.7933 7.85731 56.0173 9.8133 58.3493 10.22H8.58934H6.368C3.40267 10.22 1 8.15598 1 5.60931C1 3.06264 3.40267 0.999968 6.368 0.999968Z" fill="white"/>
<path d="M1 63.9959V5.60925C1 8.15591 3.40267 10.2199 6.368 10.2199H8.58934V68.6079H6.368C3.40533 68.6079 1 66.5452 1 63.9959Z" fill="#FA8D62"/>
<path d="M39.4948 31.7386C39.4974 31.6559 39.5028 31.5719 39.5094 31.4919C39.6668 29.8186 41.0188 28.5279 42.6348 28.5626C43.4814 28.5799 44.2428 28.9599 44.7868 29.5572C45.3308 30.1546 45.6561 30.9719 45.6388 31.8692L45.5068 38.2266" stroke="#2B616D" stroke-width="1.777" stroke-miterlimit="10" stroke-linecap="round" stroke-linejoin="round"/>
<path d="M26.7334 54.9972L27.1747 33.7132C27.2134 31.9199 28.6187 30.4999 30.3134 30.5345C31.1587 30.5532 31.9227 30.9305 32.4667 31.5279C32.9641 32.0772 33.2774 32.8039 33.3134 33.6052C33.3161 33.6585 33.3187 33.7132 33.3161 33.7665C33.3187 33.7905 33.3187 33.8159 33.3187 33.8399" stroke="#2B616D" stroke-width="1.777" stroke-miterlimit="10" stroke-linecap="round" stroke-linejoin="round"/>
<path d="M33.0173 48.1612L33.316 33.7665L33.3387 32.7505L33.4093 29.3679C33.4453 27.5785 34.852 26.1559 36.5493 26.1892C37.396 26.2092 38.1547 26.5865 38.6987 27.1865C39.2427 27.7839 39.5707 28.5999 39.5507 29.4959L39.5093 31.4919L39.1587 48.2919" stroke="#2B616D" stroke-width="1.777" stroke-miterlimit="10" stroke-linecap="round" stroke-linejoin="round"/>
<path d="M26.7387 55.0066C26.7387 55.0066 26.736 55.0039 26.7333 54.9972C26.6107 54.7866 24.632 51.3519 22.2493 47.4266C18.5667 41.3586 14.8093 44.3466 15.5933 46.6746L21.9413 63.8839C22.5533 65.5372 23.7213 67.0866 25.1053 68.2186C25.94 68.9012 26.4267 69.9546 26.4027 71.0733L26.3 76.0573" stroke="#2B616D" stroke-width="1.777" stroke-miterlimit="10" stroke-linecap="round" stroke-linejoin="round"/>
<path d="M45.2933 48.4186L45.5067 38.2266C45.544 36.4359 46.9493 35.0132 48.644 35.0479C49.4933 35.0666 50.2533 35.4439 50.796 36.0439C51.34 36.6413 51.668 37.4599 51.6493 38.3532L51.5267 44.1986L51.1813 60.8759C51.1173 63.8986 49.932 66.6346 48.044 68.6319C47.4387 69.2732 47.092 70.1332 47.072 71.0372L46.9587 76.4879" stroke="#2B616D" stroke-width="1.777" stroke-miterlimit="10" stroke-linecap="round" stroke-linejoin="round"/>
<path d="M1 5.60924V63.9959C1 66.5452 3.40533 68.6079 6.368 68.6079H8.58934H19.5653" stroke="#2B616D" stroke-width="1.777" stroke-miterlimit="10" stroke-linecap="round"/>
<path d="M53.2921 68.6079H58.148C58.8147 68.6079 59.356 68.0892 59.356 67.4492V63.8692V58.7612V19.6879V19.0972V11.1852C59.356 10.6519 58.9054 10.2199 58.3494 10.2199H8.58938H6.36804" stroke="#2B616D" stroke-width="1.777" stroke-miterlimit="10" stroke-linecap="round"/>
<path d="M8.58936 10.2199V68.6079" stroke="#2B616D" stroke-width="1.777" stroke-miterlimit="10" stroke-linecap="round"/>
<path d="M58.3493 10.22C56.0173 9.8133 54.7933 7.85731 54.7933 5.60931C54.7933 4.33598 55.192 3.18263 55.9613 2.3493C56.7333 1.5173 57.872 0.999968 59.356 0.999968H6.368C3.40267 0.999968 1 3.06264 1 5.60931C1 8.15598 3.40267 10.22 6.368 10.22" stroke="#2B616D" stroke-width="1.777" stroke-miterlimit="10" stroke-linejoin="round"/>
</svg>
