<svg width="81" height="83" viewBox="0 0 81 83" fill="none" xmlns="http://www.w3.org/2000/svg">
<path d="M52.1937 8.85208C52.0721 9.59494 52.336 10.3487 52.8943 10.8536C54.3988 12.2139 53.4326 14.9259 51.4687 15.4327C48.8175 16.1169 46.353 17.2672 44.1679 18.7898C44.1671 18.7904 44.1661 18.7907 44.1651 18.7907C44.1644 18.7907 44.1637 18.7905 44.163 18.7902C40.5912 17.0769 36.4543 16.4547 32.2627 17.2719C21.8893 19.288 15.112 29.3333 17.1307 39.7052C19.1467 50.0812 29.1893 56.8573 39.5653 54.8385C40.2974 54.6958 41.0136 54.5132 41.7117 54.2925C41.7727 54.2732 41.8367 54.2918 41.8867 54.3317C44.1306 56.3651 45.548 59.1276 45.9107 62.0959C45.9693 62.5943 46.0013 63.1027 46.0013 63.612C46.0013 64.418 45.4334 65.1125 44.6434 65.2725L40.4039 66.1311C39.1582 66.3833 38.1462 67.2892 37.758 68.4994C37.2546 70.0687 35.7273 71.0766 34.0864 70.9222L31.2061 70.6512C29.5716 70.4975 28.2636 69.2282 28.0609 67.5991C27.9032 66.3329 27.0691 65.2529 25.8839 64.7804L23.436 63.8045C22.2509 63.3321 20.9026 63.5422 19.9175 64.353C18.6503 65.3959 16.8283 65.4176 15.5365 64.4051L13.2484 62.6117C11.9569 61.5995 11.543 59.8253 12.2532 58.346C12.8051 57.1965 12.6875 55.8376 11.9463 54.8L10.4124 52.6526C9.67121 51.615 8.42385 51.0633 7.15754 51.213C5.52889 51.4056 3.98534 50.44 3.446 48.8912L2.48973 46.1452C1.9499 44.595 2.56137 42.878 3.95954 42.018C5.04608 41.3497 5.68232 40.1426 5.61955 38.8685L5.48981 36.2347C5.42701 34.9598 4.67507 33.8203 3.52767 33.2611C2.05133 32.5416 1.27395 30.8922 1.65866 29.2955L2.33889 26.4723C2.72344 24.8764 4.16639 23.7627 5.80773 23.7951C7.08334 23.8203 8.27145 23.1488 8.90781 22.043L10.2241 19.7557C10.8605 18.6498 10.844 17.285 10.181 16.1948C9.32844 14.7927 9.56551 12.9863 10.751 11.8517L12.8484 9.84439C14.0351 8.70864 15.8518 8.55065 17.2167 9.4645C18.2772 10.1745 19.6401 10.2512 20.7735 9.66463L23.1126 8.45413C24.2454 7.86786 24.9692 6.7113 25.0013 5.43614C25.0426 3.79566 26.219 2.40451 27.8298 2.0912L30.6799 1.53684C32.2923 1.22322 33.906 2.0723 34.5608 3.57881C35.0694 4.74915 36.1743 5.55025 37.4448 5.66981L40.0671 5.91658C41.3374 6.03612 42.572 5.4545 43.2886 4.39891C44.2104 3.0412 45.9521 2.50689 47.4767 3.11415L50.0857 4.15337C51.6632 4.7817 52.5913 6.42263 52.3171 8.09834L52.1937 8.85208Z" fill="#FA8D62"/>
<path d="M69.7068 57.893C69.0361 59.2009 68.5947 60.6238 68.4161 62.0957C68.3547 62.5941 68.3228 63.1025 68.3228 63.6118C68.3228 65.0701 68.3228 66.7758 68.3228 68.717C68.3228 69.6571 68.3228 70.6545 68.3228 71.705C68.3228 73.6691 66.7307 75.2607 64.7667 75.2607H63.6214H50.7054H49.5574C47.5934 75.2607 46.0014 73.6691 46.0014 71.705V68.717V64.9973V63.6118C46.0014 63.1025 45.9694 62.5941 45.9108 62.0957C45.5481 59.1274 44.1307 56.3649 41.8867 54.3315C41.8601 54.3102 41.8361 54.2853 41.8108 54.2607C37.2628 50.1025 34.4108 44.1197 34.4108 37.4691C34.4108 29.7342 38.2654 22.8998 44.1641 18.7905" stroke="#2B616D" stroke-width="1.777" stroke-miterlimit="10" stroke-linecap="round"/>
<path d="M44.1667 18.7905C47.8521 16.2223 52.3321 14.7129 57.1627 14.7129C69.7294 14.7129 79.9187 24.9009 79.9187 37.4692C79.9187 44.1572 77.0334 50.1717 72.4374 54.3368C71.3081 55.3583 70.3908 56.5649 69.7094 57.8931" stroke="#2B616D" stroke-width="1.777" stroke-miterlimit="10" stroke-linecap="round"/>
<path d="M68.3227 62.0854H46.0013" stroke="#2B616D" stroke-width="1.777" stroke-miterlimit="10" stroke-linecap="round"/>
<path d="M53.2987 68.717H46.0013" stroke="#2B616D" stroke-width="1.777" stroke-miterlimit="10" stroke-linecap="round"/>
<path d="M68.3227 68.717H60.5574" stroke="#2B616D" stroke-width="1.777" stroke-miterlimit="10" stroke-linecap="round"/>
<path d="M63.6213 75.3557C63.6213 78.9239 60.7293 81.8145 57.1626 81.8145C53.5946 81.8145 50.7053 78.9239 50.7053 75.3557" fill="#FA8D62"/>
<path d="M63.6213 75.3557C63.6213 78.9239 60.7293 81.8145 57.1626 81.8145C53.5946 81.8145 50.7053 78.9239 50.7053 75.3557" stroke="#2B616D" stroke-width="1.777" stroke-miterlimit="10" stroke-linecap="round"/>
<path d="M60.8614 42.3317C59.9627 49.9052 60.132 56.5385 60.176 62.0854" stroke="#2B616D" stroke-width="1.777" stroke-miterlimit="10" stroke-linecap="round" stroke-linejoin="round"/>
<path d="M66.2094 32.9878C68.3521 32.7154 70.0134 35.0394 69.8174 37.4607C69.6108 39.9785 64.9481 41.7394 63.6801 41.9274C63.1835 42.0094 62.7067 42.0837 62.2454 42.1503C61.54 42.252 60.937 41.6525 61.0321 40.9462V40.9462C61.8534 35.0691 64.0574 33.4649 66.2094 32.9878Z" stroke="#2B616D" stroke-width="1.777" stroke-miterlimit="10" stroke-linecap="round" stroke-linejoin="round"/>
<path d="M53.4653 42.3399C53.6347 42.3597 53.804 42.3769 53.9693 42.3957C54.012 42.4009 54.0533 42.4034 54.0947 42.4077C56.4733 42.6435 58.5 42.6034 60.8614 42.3315" stroke="#2B616D" stroke-width="1.777" stroke-miterlimit="10" stroke-linecap="round" stroke-linejoin="round"/>
<path d="M53.2894 40.9464V40.9464C53.3866 41.6575 52.7828 42.2612 52.0727 42.1567C51.6145 42.0893 51.1396 42.0129 50.6441 41.9276C49.2827 41.7344 44.7134 39.9786 44.5094 37.4609C44.3134 35.0396 45.972 32.7156 48.12 32.988C50.2694 33.465 52.4707 35.0693 53.2894 40.9464Z" stroke="#2B616D" stroke-width="1.777" stroke-miterlimit="10" stroke-linecap="round" stroke-linejoin="round"/>
<path d="M54.148 62.0854C54.1933 56.7984 54.3493 50.524 53.5853 43.3959C53.5493 43.0479 53.5067 42.6943 53.4653 42.3401" stroke="#2B616D" stroke-width="1.777" stroke-miterlimit="10" stroke-linecap="round" stroke-linejoin="round"/>
<path d="M44.1667 18.7906V18.7906C44.1649 18.7906 44.1632 18.7903 44.1616 18.7895C40.5901 17.0768 36.4537 16.4548 32.2626 17.2718C21.8893 19.288 15.112 29.3333 17.1306 39.7052C19.1466 50.0812 29.1893 56.8573 39.5653 54.8385C40.332 54.689 41.0813 54.4958 41.8107 54.2609" stroke="#2B616D" stroke-width="1.777" stroke-miterlimit="10" stroke-linecap="round"/>
<path d="M43.912 12.8079C42.7294 12.412 41.2373 12.0609 40.692 11.9557" stroke="#2B616D" stroke-width="1.777" stroke-miterlimit="10" stroke-linecap="round"/>
<path d="M34.6307 11.5547C33.436 11.6396 32.432 11.6427 30.0826 12.2251" stroke="#2B616D" stroke-width="1.777" stroke-miterlimit="10" stroke-linecap="round"/>
<path d="M24.2134 14.4583C23.0867 15.0879 22.3227 15.4212 20.348 17.001" stroke="#2B616D" stroke-width="1.777" stroke-miterlimit="10" stroke-linecap="round"/>
<path d="M16.028 21.5154C15.6534 21.9452 14.248 23.9848 13.6267 25.4744" stroke="#2B616D" stroke-width="1.777" stroke-miterlimit="10" stroke-linecap="round"/>
<path d="M11.64 31.4C11.496 31.8532 11.168 33.7224 11.1533 35.9797" stroke="#2B616D" stroke-width="1.777" stroke-miterlimit="10" stroke-linecap="round"/>
<path d="M11.8414 42.212C11.8854 42.8027 12.4334 44.7959 13.3641 46.6011" stroke="#2B616D" stroke-width="1.777" stroke-miterlimit="10" stroke-linecap="round"/>
<path d="M16.6387 51.9199C17.2133 52.5839 17.988 53.7787 19.9 55.2266" stroke="#2B616D" stroke-width="1.777" stroke-miterlimit="10" stroke-linecap="round"/>
<path d="M25.1187 58.6624C26.4787 59.3155 27.676 59.813 29.476 60.2786" stroke="#2B616D" stroke-width="1.777" stroke-miterlimit="10" stroke-linecap="round"/>
<path d="M35.6614 61.101C36.7094 61.201 38.7894 61.0666 40.2827 60.7291" stroke="#2B616D" stroke-width="1.777" stroke-miterlimit="10" stroke-linecap="round"/>
<path d="M46.0013 64.9975L40.4039 66.1311C39.1582 66.3833 38.1462 67.2892 37.758 68.4994V68.4994C37.2546 70.0687 35.7273 71.0766 34.0864 70.9222L31.2061 70.6512C29.5716 70.4975 28.2636 69.2282 28.0609 67.5991V67.5991C27.9032 66.3329 27.0691 65.2529 25.8839 64.7804L23.436 63.8045C22.2509 63.3321 20.9026 63.5422 19.9175 64.353V64.353C18.6503 65.3959 16.8283 65.4176 15.5365 64.4051L13.2484 62.6117C11.9569 61.5995 11.543 59.8253 12.2532 58.346V58.346C12.8051 57.1965 12.6875 55.8376 11.9463 54.8L10.4124 52.6526C9.67121 51.615 8.42385 51.0633 7.15754 51.213V51.213C5.52889 51.4056 3.98534 50.44 3.446 48.8912L2.48973 46.1452C1.9499 44.595 2.56137 42.878 3.95954 42.018V42.018C5.04608 41.3497 5.68232 40.1426 5.61955 38.8685L5.48981 36.2347C5.42701 34.9598 4.67507 33.8203 3.52767 33.2611V33.2611C2.05133 32.5416 1.27395 30.8922 1.65866 29.2955L2.33889 26.4723C2.72344 24.8764 4.16639 23.7627 5.80773 23.7951V23.7951C7.08334 23.8203 8.27145 23.1488 8.90782 22.043L10.2241 19.7557C10.8605 18.6498 10.844 17.285 10.181 16.1948V16.1948C9.32844 14.7927 9.56551 12.9863 10.751 11.8517L12.8484 9.84439C14.0351 8.70864 15.8518 8.55065 17.2167 9.4645V9.4645C18.2772 10.1745 19.6401 10.2512 20.7735 9.66463L23.1126 8.45413C24.2454 7.86786 24.9693 6.71131 25.0013 5.43614V5.43614C25.0426 3.79566 26.2189 2.40451 27.8298 2.0912L30.6799 1.53684C32.2923 1.22322 33.906 2.07231 34.5608 3.57881V3.57881C35.0694 4.74916 36.1743 5.55024 37.4448 5.6698L40.0671 5.91658C41.3374 6.03612 42.572 5.4545 43.2886 4.39891V4.39891C44.2104 3.0412 45.9521 2.50689 47.4767 3.11415L50.0857 4.15337C51.6632 4.7817 52.5913 6.42263 52.3171 8.09833V8.09833C52.1186 9.31107 52.5493 10.5416 53.4608 11.3658L57.1627 14.7131" stroke="#2B616D" stroke-width="1.777" stroke-miterlimit="10" stroke-linecap="round"/>
</svg>
