<svg width="81" height="80" viewBox="0 0 81 80" fill="none" xmlns="http://www.w3.org/2000/svg">
<path d="M39.4959 28.3108C41.8851 28.3108 43.8219 30.2476 43.8219 32.6368V33.8781C43.8219 36.2673 41.8851 38.2041 39.4959 38.2041C37.1067 38.2041 35.1699 36.2673 35.1699 33.8781V32.6368C35.1699 30.2476 37.1067 28.3108 39.4959 28.3108Z" fill="#FA8D62"/>
<path d="M54.0255 15.9508C56.4147 15.9508 58.3516 17.8876 58.3516 20.2768V33.878C58.3516 36.2673 56.4147 38.2041 54.0255 38.2041C51.6363 38.2041 49.6995 36.2673 49.6995 33.878V20.2768C49.6995 17.8876 51.6363 15.9508 54.0255 15.9508Z" fill="#FA8D62"/>
<path d="M68.5527 1.00011C70.9419 1.00011 72.8787 2.93693 72.8787 5.32612V33.8781C72.8787 36.2673 70.9419 38.2041 68.5527 38.2041C66.1635 38.2041 64.2267 36.2673 64.2267 33.8781V5.32611C64.2267 2.93693 66.1635 1.00011 68.5527 1.00011Z" fill="#FA8D62"/>
<path d="M37.0262 59.5788L54.7199 60.1682C55.435 60.1935 56.1429 59.9455 56.647 59.4362C57.1443 58.9348 57.3918 58.2802 57.3918 57.6242C57.3918 57.3428 57.3449 57.0588 57.2522 56.7895C57.2079 56.6588 57.1543 56.5295 57.0855 56.4042C56.211 54.6655 53.1746 53.0282 51.1834 52.9295L42.9454 52.0895C41.121 51.8495 39.3429 51.3548 37.6558 50.6175C36.9011 50.2868 36.0834 49.7188 35.4271 49.4055C28.2126 45.9575 18.6767 50.1228 9.28967 56.8775" stroke="white" stroke-width="1.777" stroke-miterlimit="10" stroke-linecap="round" stroke-linejoin="round"/>
<path d="M57.2495 56.7894V56.7894C57.2513 56.7894 57.2531 56.7892 57.2548 56.7888L58.5449 56.4827C59.8771 56.1694 61.1287 55.584 62.2334 54.764L68.223 50.3001C69.5162 49.4401 70.9293 48.764 72.4329 48.3627C78.2225 46.824 81.8954 49.8001 77.2793 53.3334L60.8667 66.1C57.7861 68.4974 54.0121 69.796 50.1309 69.796H24.1325C23.1189 69.796 22.1271 70.1067 21.2891 70.692L20.271 71.4014" stroke="white" stroke-width="1.777" stroke-miterlimit="10" stroke-linecap="round" stroke-linejoin="round"/>
<path d="M1 58.6107L6.20893 55.6361C7.0636 55.1481 8.15053 55.3694 8.74333 56.1547L9.2896 56.8774L20.2709 71.4014L20.9365 72.2814C21.5319 73.0667 21.4485 74.1721 20.7459 74.8627L16.4625 79.0627" stroke="white" stroke-width="1.777" stroke-miterlimit="10" stroke-linecap="round" stroke-linejoin="round"/>
<path d="M13.9694 73.4841C13.9694 73.8161 13.6976 74.0881 13.3648 74.0881C13.032 74.0881 12.7621 73.8161 12.7621 73.4841C12.7621 73.1508 13.032 72.8815 13.3648 72.8815C13.6976 72.8815 13.9694 73.1508 13.9694 73.4841Z" stroke="white" stroke-width="1.777" stroke-miterlimit="10" stroke-linecap="round" stroke-linejoin="round"/>
<path d="M35.1699 38.2041V32.6368C35.1699 30.2476 37.1067 28.3108 39.4959 28.3108V28.3108C41.8851 28.3108 43.8219 30.2476 43.8219 32.6368V38.2041" stroke="white" stroke-width="1.777" stroke-miterlimit="10" stroke-linejoin="round"/>
<path d="M35.1699 43.0015V42.3668" stroke="white" stroke-width="1.777" stroke-miterlimit="10" stroke-linejoin="round"/>
<path d="M49.6995 38.2041V20.2768C49.6995 17.8876 51.6363 15.9508 54.0255 15.9508V15.9508C56.4147 15.9508 58.3516 17.8876 58.3516 20.2768V38.2041" stroke="white" stroke-width="1.777" stroke-miterlimit="10" stroke-linejoin="round"/>
<path d="M64.2267 38.2041V5.32612C64.2267 2.93693 66.1635 1.00012 68.5527 1.00012V1.00012C70.9419 1.00012 72.8787 2.93693 72.8787 5.32612V38.2041" stroke="white" stroke-width="1.777" stroke-miterlimit="10" stroke-linejoin="round"/>
<path d="M72.8787 42.5562V42.3668" stroke="white" stroke-width="1.777" stroke-miterlimit="10" stroke-linejoin="round"/>
<path d="M30.434 42.3667H76.4736" stroke="white" stroke-width="1.777" stroke-miterlimit="10" stroke-linejoin="round"/>
</svg>
