<svg width="80" height="80" viewBox="0 0 80 80" fill="none" xmlns="http://www.w3.org/2000/svg">
<path d="M31.104 72.1868C31.8027 72.8375 31.8814 73.9162 31.292 74.6655C29.9888 76.3124 27.8063 77.038 25.8488 76.2772C18.8229 73.5466 12.785 68.8372 8.42222 62.8312C7.43453 61.4714 7.73086 59.6017 9 58.5C9.70267 57.8547 13.2387 55.5295 13.9374 56.1788L14.9801 57.1535L29.9894 71.1482L31.104 72.1868Z" fill="#FA8D62"/>
<path d="M34.16 37.2015L34.9787 37.5468C36.8241 38.3282 38.9534 37.4642 39.7374 35.6188C40.2494 34.4108 40.0574 33.0815 39.3454 32.0855" stroke="#2B616D" stroke-width="1.777" stroke-miterlimit="10" stroke-linecap="round"/>
<path d="M31.148 28.0563L30.476 27.7563C28.628 26.9723 26.4987 27.8376 25.716 29.6856C25.5293 30.1282 25.436 30.5856 25.4294 31.0363C25.4054 32.4509 26.2134 33.8042 27.5787 34.4136" stroke="#2B616D" stroke-width="1.777" stroke-miterlimit="10" stroke-linecap="round"/>
<path d="M30.0134 43.3308L31.2001 43.8335C33.0454 44.6148 35.1774 43.7508 35.9601 41.9042C36.7214 40.1002 35.9161 38.0268 34.1601 37.2015C34.1161 37.1815 34.0747 37.1641 34.0307 37.1455L27.6134 34.4281L27.5787 34.4135L25.6414 33.5921C23.7934 32.8108 21.6627 33.6748 20.8814 35.5215C20.6867 35.9841 20.5947 36.4628 20.5947 36.9348C20.5947 38.3495 21.4241 39.6935 22.8094 40.2801L30.0134 43.3308Z" stroke="#2B616D" stroke-width="1.777" stroke-miterlimit="10" stroke-linecap="round"/>
<path d="M25.5881 49.3893L27.1681 50.056C29.0134 50.8373 31.1441 49.976 31.9254 48.128C32.7067 46.2827 31.8454 44.1493 29.9974 43.368L23.0068 40.4093C21.1588 39.628 19.0281 40.492 18.2468 42.3373C18.0521 42.8 17.9601 43.28 17.9601 43.752C17.9601 45.1666 18.7921 46.5107 20.1748 47.0973L20.3827 47.1853" stroke="#2B616D" stroke-width="1.777" stroke-miterlimit="10" stroke-linecap="round"/>
<path d="M18.8 53.399L23.116 55.227C24.728 55.9096 26.588 55.155 27.2694 53.543C27.9547 51.931 27.1987 50.0709 25.588 49.3896L20.4305 47.205C20.4147 47.1983 20.3986 47.192 20.3827 47.1856V47.1856C18.7747 46.5216 16.932 47.2763 16.2533 48.8803C16.0827 49.2843 16.0027 49.7029 16.0027 50.1149C16.0027 51.3496 16.728 52.523 17.9347 53.0336L18.8 53.399Z" stroke="#2B616D" stroke-width="1.777" stroke-miterlimit="10" stroke-linecap="round"/>
<path d="M14.9801 57.1533C16.2041 56.1067 17.9108 54.424 18.7734 53.46" stroke="#2B616D" stroke-width="1.777" stroke-miterlimit="10" stroke-linecap="round"/>
<path d="M47.3801 26.9189L44.9628 25.6043C44.0641 25.115 43.0521 24.8523 42.0214 24.8403L31.2241 24.6936C30.9561 24.6896 30.7415 24.8963 30.7415 25.1523C30.7521 26.2763 30.8854 27.2376 31.1508 28.0563C31.1654 28.1056 31.1801 28.1536 31.1974 28.2003C31.8641 30.111 33.2668 31.187 35.4481 31.6056L39.2121 32.0683L39.2828 32.0789L39.3455 32.0856L39.6815 32.127" stroke="#2B616D" stroke-width="1.777" stroke-miterlimit="10" stroke-linecap="round"/>
<path d="M57.3333 38.8056L55.5347 40.0669" stroke="#2B616D" stroke-width="1.777" stroke-miterlimit="10" stroke-linecap="round"/>
<path d="M55.1307 30.9601C55.2726 30.8619 55.4211 30.7717 55.5684 30.692C55.5699 30.6912 55.5717 30.6907 55.5734 30.6907V30.6907C55.5752 30.6907 55.5769 30.6903 55.5784 30.6895C55.9857 30.4782 56.4209 30.3466 56.8587 30.2934C58.2294 30.1227 59.6414 30.6974 60.4868 31.9081C61.7068 33.6467 61.2827 36.0467 59.5387 37.2614L57.3694 38.7827" stroke="#2B616D" stroke-width="1.777" stroke-miterlimit="10" stroke-linecap="round"/>
<path d="M59.2547 46.8521L61.7427 45.1107C63.4854 43.8907 63.9094 41.4934 62.6894 39.7521C61.8454 38.5441 60.4308 37.9721 59.0641 38.1427C58.4742 38.213 57.9 38.423 57.3784 38.7766C57.3725 38.7806 57.3651 38.7831 57.3601 38.7881V38.7881C57.3507 38.7961 57.3414 38.8001 57.3334 38.8054" stroke="#2B616D" stroke-width="1.777" stroke-miterlimit="10" stroke-linecap="round"/>
<path d="M29.9894 71.1479C38.4067 63.1493 35.1067 65.872 40.184 64.5426C40.7414 64.396 41.4014 64.1986 42.1894 63.936C49.0014 61.6373 50.8494 60.204 61.1334 53.4613C61.728 53.072 62.3494 52.6653 63.0014 52.24C66.5641 49.744 62.7774 44.38 59.2547 46.852L58.3094 47.5146" stroke="#2B616D" stroke-width="1.777" stroke-miterlimit="10" stroke-linecap="round"/>
<path d="M54.1268 31.6643L54.9988 31.0576C55.0428 31.027 55.0881 30.995 55.1308 30.9603C56.7561 29.715 57.1268 27.3963 55.9428 25.7016C55.0961 24.4923 53.6814 23.9203 52.3134 24.0896C51.7094 24.1656 51.1147 24.3829 50.5827 24.7549L47.3801 26.9189L39.6841 32.127" stroke="#2B616D" stroke-width="1.777" stroke-miterlimit="10" stroke-linecap="round"/>
<path d="M52.576 32.748L53.508 32.0974" stroke="#2B616D" stroke-width="1.777" stroke-miterlimit="10" stroke-linecap="round"/>
<path d="M54.1267 31.6641L53.5081 32.0974" stroke="#2B616D" stroke-width="1.777" stroke-miterlimit="10" stroke-linecap="round"/>
<path d="M61.1333 53.46V53.46C61.1333 53.4609 61.1336 53.4617 61.1342 53.4623C62.0024 54.4278 63.7057 56.107 64.9293 57.1533" stroke="#2B616D" stroke-width="1.777" stroke-miterlimit="10" stroke-linecap="round"/>
<path d="M40.1841 64.5429C41.6881 64.8255 43.0174 64.9975 44.0748 65.6815C44.2441 65.7935 44.4028 65.9228 44.5561 66.0522L49.9228 71.1455" stroke="#2B616D" stroke-width="1.777" stroke-miterlimit="10" stroke-linecap="round"/>
<path d="M6.79867 60.4107C3.12 54.4654 1 47.4587 1 39.9547C1 18.4414 18.4387 1.00009 39.9547 1.00009C61.4693 1.00009 78.9093 18.4414 78.9093 39.9547C78.9093 47.4587 76.7893 54.4654 73.1106 60.4107C68.088 68.5401 60.1573 74.6801 50.772 77.3881C47.336 78.3787 43.7093 78.9094 39.9547 78.9094C36.2 78.9094 32.572 78.3787 29.1373 77.3881C19.752 74.6801 11.8213 68.5401 6.79867 60.4107Z" stroke="#2B616D" stroke-width="1.777" stroke-miterlimit="10" stroke-linecap="round"/>
<path d="M50.9279 77.3518C50.7482 77.4251 50.5598 77.29 50.5598 77.096C50.5598 77.0323 50.5377 76.9705 50.4973 76.9213L48.3955 74.3631C47.8035 73.638 47.8839 72.5943 48.5843 71.9647L49.7067 70.9571L64.7806 57.4187L65.8279 56.4756C66.3016 56.0516 66.9504 55.9102 67.5391 56.0551C68.109 56.1953 68.6149 56.5472 69.1795 56.7073C72.0327 57.5166 72.9847 61.0812 70.9149 63.2052L64.7806 69.5L65.4913 68.8081" fill="#FA8D62"/>
<path d="M48.3955 74.3631L50.4973 76.9213C50.5377 76.9705 50.5598 77.0323 50.5598 77.096V77.096C50.5598 77.29 50.7482 77.4251 50.9279 77.3518C52.9134 76.542 62.3739 72.5513 65.5 68.7997V68.7997C65.8502 68.3794 65.8834 68.4265 65.4913 68.8081L64.7806 69.5L70.9149 63.2052C72.9847 61.0812 72.0327 57.5166 69.1795 56.7073V56.7073C68.6149 56.5472 68.109 56.1953 67.5391 56.0551C66.9504 55.9102 66.3016 56.0516 65.8279 56.4756L64.7806 57.4187L49.7067 70.9571L48.5843 71.9647C47.8839 72.5943 47.8035 73.638 48.3955 74.3631Z" stroke="#2B616D" stroke-width="1.777" stroke-miterlimit="10" stroke-linecap="round"/>
<path d="M6.79602 60.4133L6.79869 60.4106L11.4547 56.1666C12.1573 55.5213 13.2387 55.5293 13.9374 56.1786L14.98 57.1533L29.9893 71.1479L31.104 72.1866C31.8027 72.8373 31.8813 73.916 31.292 74.6653L29.1374 77.388L29.1347 77.3906" stroke="#2B616D" stroke-width="1.777" stroke-miterlimit="10" stroke-linecap="round"/>
<path d="M50.7574 14.3535L47.7654 20.1016" stroke="#FA8D62" stroke-width="1.777" stroke-miterlimit="10" stroke-linecap="round" stroke-linejoin="round"/>
<path d="M29.5974 14.3535L32.5867 20.1016" stroke="#FA8D62" stroke-width="1.777" stroke-miterlimit="10" stroke-linecap="round" stroke-linejoin="round"/>
<path d="M40.264 7.2293V18.5293" stroke="#FA8D62" stroke-width="1.777" stroke-miterlimit="10" stroke-linecap="round" stroke-linejoin="round"/>
</svg>
