<svg width="87" height="91" viewBox="0 0 87 91" fill="none" xmlns="http://www.w3.org/2000/svg">
<path d="M34.0413 10.7761C31.3347 10.7761 29.14 8.58705 29.14 5.88799C29.14 3.18959 31.3347 0.999985 34.0413 0.999985C36.7467 0.999985 38.9413 3.18959 38.9413 5.88799C38.9413 8.58705 36.7467 10.7761 34.0413 10.7761Z" fill="#FA8D62"/>
<path d="M14.9347 11.8486C14.9347 14.547 12.7401 16.7366 10.0347 16.7366H10.0321C7.32542 16.7334 5.13342 14.547 5.13342 11.8486C5.13342 9.1495 7.32807 6.96043 10.0347 6.96043C12.7401 6.96043 14.9347 9.1495 14.9347 11.8486Z" fill="#FA8D62"/>
<path d="M10.8 54.5257V54.5283C10.8 57.2272 8.60667 59.4163 5.9 59.4163C3.19467 59.4163 1 57.2272 1 54.5283C1 51.8299 3.19467 49.6429 5.9 49.6429C8.60667 49.6429 10.7987 51.8272 10.8 54.5257Z" fill="#FA8D62"/>
<path d="M14.9347 78.9908C14.9347 81.6897 12.7401 83.8762 10.0347 83.8762C7.32807 83.8762 5.13342 81.6897 5.13342 78.9908C5.13342 76.2897 7.32807 74.1033 10.0347 74.1033C12.7401 74.1033 14.9347 76.2897 14.9347 78.9908Z" fill="#FA8D62"/>
<path d="M52.824 80.0642H52.8266C55.5333 80.0642 57.7266 82.2511 57.7266 84.9522C57.7266 87.6511 55.5333 89.8376 52.8266 89.8376C50.12 89.8376 47.9266 87.6511 47.9266 84.9522C47.9266 82.2511 50.1186 80.0656 52.824 80.0642Z" fill="#FA8D62"/>
<path d="M76.836 73.5854C79.5427 73.588 81.7333 75.7734 81.7333 78.4724C81.7333 81.1734 79.54 83.3604 76.8333 83.3604C74.128 83.3604 71.9333 81.1734 71.9333 78.4724C71.9333 75.7734 74.128 73.5854 76.8333 73.5854H76.836Z" fill="#FA8D62"/>
<path d="M76.0667 35.7936V35.7922C76.0667 33.0936 78.2613 30.9042 80.968 30.9042C83.6733 30.9042 85.868 33.0936 85.868 35.7922C85.868 38.4906 83.6733 40.6802 80.968 40.6802C78.2613 40.6802 76.0693 38.4922 76.0667 35.7936Z" fill="#FA8D62"/>
<path d="M71.9333 11.8486C71.9333 9.1495 74.128 6.96043 76.8333 6.96043C79.54 6.96043 81.7333 9.1495 81.7333 11.8486C81.7333 14.547 79.54 16.7366 76.8333 16.7366C74.128 16.7366 71.9333 14.547 71.9333 11.8486Z" fill="#FA8D62"/>
<path d="M63.2587 59.7907C63.9929 64.2652 60.5401 68.3308 56.0057 68.3308H30.8619C26.3273 68.3308 22.8738 64.2657 23.6067 59.7907C23.932 57.8032 25.3107 56.1349 27.228 55.4095L34.6403 52.6049C36.4664 51.914 38.5274 52.3428 39.9263 53.7047C41.8777 55.6045 44.988 55.604 46.94 53.7049C48.3396 52.3432 50.4017 51.914 52.2281 52.605L59.64 55.4095C61.5547 56.1349 62.9333 57.8032 63.2587 59.7907Z" fill="#FA8D62"/>
<path d="M5.9 49.6429C8.60667 49.6429 10.7987 51.8272 10.8 54.5257V54.5283C10.8 57.2272 8.60667 59.4163 5.9 59.4163C3.19467 59.4163 1 57.2272 1 54.5283C1 51.8299 3.19467 49.6429 5.9 49.6429Z" stroke="white" stroke-width="1.777" stroke-miterlimit="10" stroke-linejoin="round"/>
<path d="M34.0414 18.7495V10.3323" stroke="white" stroke-width="1.777" stroke-miterlimit="10" stroke-linejoin="round"/>
<path d="M38.9413 5.88799C38.9413 8.58706 36.7467 10.7761 34.0413 10.7761C31.3347 10.7761 29.14 8.58706 29.14 5.88799C29.14 3.18959 31.3347 0.999984 34.0413 0.999984C36.7467 0.999984 38.9413 3.18959 38.9413 5.88799Z" stroke="white" stroke-width="1.777" stroke-miterlimit="10" stroke-linejoin="round"/>
<path d="M71.9333 11.8486C71.9333 14.547 74.128 16.7366 76.8333 16.7366C79.54 16.7366 81.7333 14.547 81.7333 11.8486C81.7333 9.1495 79.54 6.96043 76.8333 6.96043C74.128 6.96043 71.9333 9.1495 71.9333 11.8486Z" stroke="white" stroke-width="1.777" stroke-miterlimit="10" stroke-linejoin="round"/>
<path d="M52.8267 18.7495V18.7495C52.8267 14.9382 55.9163 11.8486 59.7276 11.8486H72.3787" stroke="white" stroke-width="1.777" stroke-miterlimit="10" stroke-linejoin="round"/>
<path d="M10.3573 54.5256H20.2186" stroke="white" stroke-width="1.777" stroke-miterlimit="10" stroke-linejoin="round"/>
<path d="M10.0347 16.7366C12.7401 16.7366 14.9347 14.547 14.9347 11.8486C14.9347 9.1495 12.7401 6.96043 10.0347 6.96043C7.32807 6.96043 5.13342 9.1495 5.13342 11.8486C5.13342 14.547 7.32542 16.7334 10.0321 16.7366H10.0347Z" stroke="white" stroke-width="1.777" stroke-miterlimit="10" stroke-linejoin="round"/>
<path d="M10.032 16.2906V21.7895C10.032 29.5215 16.3 35.7896 24.032 35.7896H28.3253" stroke="white" stroke-width="1.777" stroke-miterlimit="10" stroke-linejoin="round"/>
<path d="M52.824 73.3096V80.5044" stroke="white" stroke-width="1.777" stroke-miterlimit="10" stroke-linejoin="round"/>
<path d="M47.9266 84.9522C47.9266 82.2511 50.1186 80.0656 52.824 80.0642H52.8266C55.5333 80.0642 57.7266 82.2511 57.7266 84.9522C57.7266 87.6511 55.5333 89.8376 52.8266 89.8376C50.12 89.8376 47.9266 87.6511 47.9266 84.9522Z" stroke="white" stroke-width="1.777" stroke-miterlimit="10" stroke-linejoin="round"/>
<path d="M14.9347 78.9908C14.9347 76.2897 12.7401 74.1033 10.0347 74.1033C7.32807 74.1033 5.13342 76.2897 5.13342 78.9908C5.13342 81.6897 7.32807 83.8762 10.0347 83.8762C12.7401 83.8762 14.9347 81.6897 14.9347 78.9908Z" stroke="white" stroke-width="1.777" stroke-miterlimit="10" stroke-linejoin="round"/>
<path d="M14.4867 78.9907H28.3575C31.4951 78.9907 34.0387 76.4472 34.0387 73.3095V73.3095" stroke="white" stroke-width="1.777" stroke-miterlimit="10" stroke-linejoin="round"/>
<path d="M76.5081 35.7937H58.5427" stroke="white" stroke-width="1.777" stroke-miterlimit="10" stroke-linejoin="round"/>
<path d="M80.968 40.6802C78.2613 40.6802 76.0693 38.4922 76.0667 35.7936V35.7922C76.0667 33.0936 78.2613 30.9042 80.968 30.9042C83.6733 30.9042 85.868 33.0936 85.868 35.7922C85.868 38.4906 83.6733 40.6802 80.968 40.6802Z" stroke="white" stroke-width="1.777" stroke-miterlimit="10" stroke-linejoin="round"/>
<path d="M76.8333 73.5854C74.128 73.5854 71.9333 75.7734 71.9333 78.4724C71.9333 81.1734 74.128 83.3604 76.8333 83.3604C79.54 83.3604 81.7333 81.1734 81.7333 78.4724C81.7333 75.7734 79.5427 73.588 76.836 73.5854H76.8333Z" stroke="white" stroke-width="1.777" stroke-miterlimit="10" stroke-linejoin="round"/>
<path d="M76.836 74.0298V64.7135C76.836 59.0898 72.2771 54.5309 66.6533 54.5309V54.5309" stroke="white" stroke-width="1.777" stroke-miterlimit="10" stroke-linejoin="round"/>
<path d="M30.8619 68.3308C26.3273 68.3308 22.8738 64.2657 23.6067 59.7907V59.7907C23.932 57.8032 25.3107 56.1349 27.228 55.4095L34.6403 52.6049C36.4664 51.914 38.5274 52.3428 39.9263 53.7047V53.7047C41.8777 55.6045 44.988 55.604 46.94 53.7049V53.7049C48.3396 52.3432 50.4017 51.914 52.2281 52.605L59.64 55.4095C61.5547 56.1349 62.9333 57.8032 63.2587 59.7907V59.7907C63.9929 64.2652 60.5401 68.3308 56.0057 68.3308H30.8619Z" stroke="white" stroke-width="1.777" stroke-miterlimit="10" stroke-linecap="round" stroke-linejoin="round"/>
<path d="M34.1217 29.905C34.1061 32.0385 33.1442 35.664 33.9471 37.6407V37.6407C34.4461 38.8691 35.7091 39.8794 36.1623 41.1254C36.3309 41.589 36.4742 41.9865 36.5213 42.127C37.92 45.2786 39.788 46.5469 42.2226 47.0906C43.0306 47.2724 43.856 47.2698 44.6613 47.0854C47.0893 46.5401 48.9506 45.2698 50.3453 42.127C50.3929 41.9865 50.5365 41.5889 50.7053 41.1253C51.159 39.8794 52.4218 38.8691 52.9208 37.6407V37.6407C53.7238 35.664 52.7619 32.0385 52.7462 29.905C52.7048 24.2844 49.1054 22.0324 43.432 21.9896C37.7619 22.0324 34.163 24.2844 34.1217 29.905Z" stroke="white" stroke-width="1.777" stroke-miterlimit="10" stroke-linecap="round" stroke-linejoin="round"/>
<path d="M34.6067 34.0247C36.4534 34.7882 36.744 31.6044 37.3134 30.0512C37.42 29.7606 37.8147 29.6548 38.1334 29.7403C39.796 30.1914 41.6747 30.3872 43.432 30.3872C44.3147 30.3872 45.2227 30.3378 46.1187 30.2324C47.0174 30.1272 47.9014 29.9658 48.732 29.7403C49.0534 29.6548 49.4467 29.7606 49.5547 30.0512C50.1227 31.6044 50.4147 34.7882 52.2614 34.0247" stroke="white" stroke-width="1.777" stroke-miterlimit="10" stroke-linecap="round" stroke-linejoin="round"/>
</svg>
