<svg width="79" height="80" viewBox="0 0 79 80" fill="none" xmlns="http://www.w3.org/2000/svg">
<path d="M39.1253 9.21725C39.1253 16.5706 39.032 16.5239 39.292 17.0426C41.0187 19.6412 43.1467 14.7159 45.948 17.8786C47.4893 20.4559 46.5934 24.1439 43.7414 24.1439C41.8027 24.1439 40.8067 21.9906 39.292 23.8906C39.0347 24.4079 39.1253 23.4119 39.1253 30.3893C32.1493 30.3893 33.144 30.4799 32.6294 30.2226C30.7267 28.7066 32.88 27.7119 32.88 25.7719C32.88 22.9213 29.192 22.0279 26.616 23.5693C23.452 26.3679 28.3787 28.4973 25.7787 30.2226C25.26 30.4813 25.308 30.3893 17.9547 30.3893H17.9C17.9 30.3839 17.9 30.3773 17.9 30.3719C17.9 18.6719 27.3853 9.18392 39.088 9.18392C39.1 9.18392 39.1133 9.18392 39.1253 9.18392V9.21725Z" fill="#FA8D62"/>
<path d="M39.1253 30.3893C39.1253 37.3653 39.216 36.3706 38.9587 36.8866C37.444 38.788 36.448 36.6373 34.5094 36.6373C31.6587 36.6373 30.7654 40.3213 32.3054 42.8986C35.1054 46.0626 37.2347 41.136 38.9587 43.7346C39.2187 44.2546 39.1253 44.2093 39.1253 51.5626C39.1133 51.5626 39.1 51.5626 39.088 51.5626C27.3893 51.5626 17.9094 42.084 17.9 30.3893H17.9547C25.308 30.3893 25.26 30.4813 25.7787 30.2226C28.3787 28.4973 23.452 26.368 26.616 23.5693C29.192 22.028 32.88 22.9213 32.88 25.772C32.88 27.712 30.7267 28.7066 32.6294 30.2226C33.144 30.48 32.1493 30.3893 39.1253 30.3893Z" fill="#FA8D62"/>
<path d="M39.0163 31.1733C39.0163 24.1973 38.9256 25.192 39.183 24.676C40.6976 22.7747 41.6936 24.9253 43.6323 24.9253C46.483 24.9253 47.3763 21.2413 45.8363 18.664C43.0363 15.5 40.907 20.4267 39.183 17.828C38.923 17.308 39.0163 17.3533 39.0163 10C39.0283 10 39.0417 10 39.0537 10C50.7523 10 60.2323 19.4787 60.2416 31.1733H60.187C52.8337 31.1733 52.8817 31.0813 52.363 31.34C49.763 33.0653 54.6897 35.1947 51.5257 37.9933C48.9497 39.5347 45.2617 38.6413 45.2617 35.7907C45.2617 33.8507 47.415 32.856 45.5123 31.34C44.9976 31.0827 45.9923 31.1733 39.0163 31.1733Z" fill="white"/>
<path d="M52.4719 30.556C52.9906 30.296 52.9453 30.3893 60.2746 30.3893C60.2653 42.0706 50.8039 51.5413 39.1253 51.5626C39.1253 44.2093 39.2186 44.2546 38.9586 43.7346C37.2346 41.136 35.1053 46.0626 32.3053 42.8986C30.7653 40.3213 31.6586 36.6373 34.5093 36.6373C36.4479 36.6373 37.4439 38.788 38.9586 36.8866C39.2159 36.3706 39.1253 37.3653 39.1253 30.3893C46.1053 30.3893 45.1093 30.2986 45.6239 30.556C47.5266 32.0706 45.3733 33.0666 45.3733 35.0053C45.3733 37.856 49.0586 38.7493 51.6386 37.2106C54.7986 34.4093 49.8733 32.28 52.4719 30.556Z" fill="#FA8D62"/>
<path d="M11.5373 52.4013C12.7067 50.3907 17.2013 50.8693 19.732 52.484C33.916 61.5 34.5907 64.1947 38.9427 78.4333C17.9707 78.3413 1 61.0427 1 39.7174C1 38.4213 1.06132 37.1413 1.18532 35.88L1.55866 35.9147C2.03599 35.112 2.88133 34.6187 3.83467 34.5507C8.66933 34.2173 8.396 39.7693 8.56266 40.9173L9.09867 48.9734C9.24133 50.5067 10.656 51.7573 11.5373 52.4013Z" fill="white"/>
<path d="M66.7333 52.4027C67.6147 51.7574 69.0293 50.5067 69.172 48.9734L69.708 40.9173C69.8747 39.7693 69.6013 34.2173 74.436 34.5507C75.3893 34.6187 76.1267 35.0427 76.6627 35.8907L77.0347 35.856C77.1587 37.1254 77.2227 38.4133 77.2227 39.7174C77.2227 61.0267 60.2747 78.3147 39.328 78.4333C43.68 64.1947 44.3533 61.5 58.5387 52.484C61.068 50.8693 65.5627 50.3907 66.7333 52.4027Z" fill="white"/>
<path d="M66.7306 52.4026H66.7333C67.6146 51.7573 69.0293 50.5066 69.1719 48.9733L69.7079 40.9173C69.8746 39.7693 69.6013 34.2173 74.4359 34.5506C75.3893 34.6186 76.1266 35.0426 76.6626 35.8906" stroke="#2B616D" stroke-width="1.777" stroke-miterlimit="10" stroke-linecap="round" stroke-linejoin="round"/>
<path d="M39.1826 78.9093C39.2333 78.7506 39.28 78.5906 39.328 78.4333C43.68 64.1946 44.3533 61.5 58.5386 52.484C61.068 50.8693 65.5626 50.3906 66.7333 52.4026C66.9213 52.7253 67.024 53.1106 67.0186 53.568C66.9946 54.9613 66.8373 54.7013 54.284 65.904" stroke="#2B616D" stroke-width="1.777" stroke-miterlimit="10" stroke-linecap="round" stroke-linejoin="round"/>
<path d="M1.55872 35.9146C2.03605 35.1119 2.88139 34.6186 3.83472 34.5506C8.66939 34.2173 8.39605 39.7693 8.56272 40.9173L9.09872 48.9733C9.24139 50.5066 10.6561 51.7573 11.5374 52.4013C11.5374 52.4026 11.5401 52.4026 11.5401 52.4026" stroke="#2B616D" stroke-width="1.777" stroke-miterlimit="10" stroke-linecap="round" stroke-linejoin="round"/>
<path d="M23.9854 65.904C11.432 54.7013 11.276 54.9613 11.252 53.568C11.2467 53.1106 11.3494 52.7253 11.5374 52.4013C12.7067 50.3906 17.2014 50.8693 19.732 52.484C33.916 61.5 34.5907 64.1946 38.9427 78.4333C38.9894 78.5906 39.0374 78.7506 39.088 78.9093" stroke="#2B616D" stroke-width="1.777" stroke-miterlimit="10" stroke-linecap="round" stroke-linejoin="round"/>
<path d="M77.0347 35.856C77.1587 37.1254 77.2227 38.4133 77.2227 39.7174C77.2227 61.0267 60.2747 78.3147 39.328 78.4333C39.256 78.4333 39.1826 78.4333 39.1106 78.4333C39.0546 78.4333 38.9987 78.4333 38.9427 78.4333C17.9707 78.3413 1 61.0427 1 39.7174C1 38.4213 1.06132 37.1413 1.18532 35.88C3.08132 16.2973 19.336 1.00002 39.1106 1.00002C58.8746 1.00002 75.1293 16.2854 77.0347 35.856Z" stroke="#2B616D" stroke-width="1.777" stroke-miterlimit="10" stroke-linecap="round" stroke-linejoin="round"/>
<path d="M39.1253 30.3893C39.1253 23.4119 39.0346 24.408 39.292 23.8906C40.8066 21.9906 41.8027 24.1439 43.7413 24.1439C46.5933 24.1439 47.4893 20.4559 45.948 17.8786C43.1466 14.7159 41.0186 19.6413 39.292 17.0426C39.032 16.5239 39.1253 16.5706 39.1253 9.21728" stroke="#2B616D" stroke-width="1.777" stroke-miterlimit="10" stroke-linecap="round" stroke-linejoin="round"/>
<path d="M39.1254 30.3893C32.1494 30.3893 33.1441 30.4799 32.6294 30.2226C30.7267 28.7066 32.88 27.7119 32.88 25.7719C32.88 22.9213 29.192 22.0279 26.616 23.5693C23.452 26.3679 28.3787 28.4973 25.7787 30.2226C25.26 30.4813 25.308 30.3893 17.9547 30.3893" stroke="#2B616D" stroke-width="1.777" stroke-miterlimit="10" stroke-linecap="round" stroke-linejoin="round"/>
<path d="M39.1253 30.3893C39.1253 37.3653 39.2159 36.3706 38.9586 36.8866C37.4439 38.788 36.4479 36.6373 34.5093 36.6373C31.6586 36.6373 30.7653 40.3213 32.3053 42.8986C35.1053 46.0626 37.2346 41.136 38.9586 43.7346C39.2186 44.2546 39.1253 44.2093 39.1253 51.5626" stroke="#2B616D" stroke-width="1.777" stroke-miterlimit="10" stroke-linecap="round" stroke-linejoin="round"/>
<path d="M39.1254 30.3893C46.1054 30.3893 45.1094 30.2987 45.624 30.556C47.5267 32.0707 45.3734 33.0667 45.3734 35.0053C45.3734 37.856 49.0587 38.7493 51.6387 37.2107C54.7987 34.4093 49.8734 32.28 52.472 30.556C52.9907 30.296 52.9454 30.3893 60.2747 30.3893C60.2827 30.3893 60.292 30.3893 60.2987 30.3893" stroke="#2B616D" stroke-width="1.777" stroke-miterlimit="10" stroke-linecap="round" stroke-linejoin="round"/>
<path d="M39.1253 9.18396C50.812 9.20529 60.2747 18.684 60.2747 30.372C60.2747 30.3773 60.2747 30.384 60.2747 30.3893C60.2654 42.0706 50.804 51.5413 39.1253 51.5626C39.1133 51.5626 39.1 51.5626 39.088 51.5626C27.3893 51.5626 17.9094 42.084 17.9 30.3893C17.9 30.384 17.9 30.3773 17.9 30.372C17.9 18.672 27.3853 9.18396 39.088 9.18396C39.1 9.18396 39.1133 9.18396 39.1253 9.18396Z" stroke="#2B616D" stroke-width="1.777" stroke-miterlimit="10" stroke-linecap="round" stroke-linejoin="round"/>
</svg>
